# This file uses meters as units for non-parametric coordinates.

mtllib Piattaforma.mtl
g default
v -291.180991 22.602219 36.271180
v -123.556952 22.602219 36.271180
v -291.180991 37.210099 36.271180
v -123.556952 37.210099 36.271180
v -291.180991 37.210099 -36.271180
v -123.556952 37.210099 -36.271180
v -291.180991 22.602219 -36.271180
v -123.556952 22.602219 -36.271180
vt 0.356934 0.822765
vt 0.629113 0.819224
vt 0.629826 0.874032
vt 0.357647 0.877573
vt 0.058442 0.827558
vt 0.330620 0.824018
vt 0.331333 0.878826
vt 0.059155 0.882367
vt 0.041480 0.158546
vt 0.670458 0.158429
vt 0.670509 0.430630
vt 0.041531 0.430748
vt 0.041480 0.455527
vt 0.670458 0.455409
vt 0.670509 0.727611
vt 0.041531 0.727728
vt 0.054900 0.746815
vt 0.683877 0.746896
vt 0.683870 0.801709
vt 0.054892 0.801628
vt 0.067131 0.896539
vt 0.696109 0.896620
vt 0.696102 0.951433
vt 0.067124 0.951352
vn 0.000000 0.000000 1.000000
vn 0.000000 0.000000 1.000000
vn 0.000000 0.000000 1.000000
vn 0.000000 0.000000 1.000000
vn 0.000000 1.000000 0.000000
vn 0.000000 1.000000 0.000000
vn 0.000000 1.000000 0.000000
vn 0.000000 1.000000 0.000000
vn 0.000000 0.000000 -1.000000
vn 0.000000 0.000000 -1.000000
vn 0.000000 0.000000 -1.000000
vn 0.000000 0.000000 -1.000000
vn 0.000000 -1.000000 0.000000
vn 0.000000 -1.000000 0.000000
vn 0.000000 -1.000000 0.000000
vn 0.000000 -1.000000 0.000000
vn 1.000000 0.000000 0.000000
vn 1.000000 0.000000 0.000000
vn 1.000000 0.000000 0.000000
vn 1.000000 0.000000 0.000000
vn -1.000000 0.000000 0.000000
vn -1.000000 0.000000 0.000000
vn -1.000000 0.000000 0.000000
vn -1.000000 0.000000 0.000000
s off
g pCube11 Piattaforma_2
usemtl initialShadingGroup
f 1/17/1 2/18/2 4/19/3 3/20/4
f 3/9/5 4/10/6 6/11/7 5/12/8
f 5/21/9 6/22/10 8/23/11 7/24/12
f 7/13/13 8/14/14 2/15/15 1/16/16
f 2/1/17 8/2/18 6/3/19 4/4/20
f 7/5/21 1/6/22 3/7/23 5/8/24
g default
v -211.427123 -76.654829 6.931067
v -196.523063 -76.654829 6.931067
v -211.427123 31.556939 6.931067
v -196.523063 31.556939 6.931067
v -211.427123 31.556939 -6.931067
v -196.523063 31.556939 -6.931067
v -211.427123 -76.654829 -6.931067
v -196.523063 -76.654829 -6.931067
vt 0.705604 0.074372
vt 0.705291 0.126386
vt 0.299254 0.123946
vt 0.299567 0.071932
vt 0.701693 0.326595
vt 0.753702 0.327401
vt 0.747406 0.733397
vt 0.695397 0.732590
vt 0.040815 0.080993
vt 0.096740 0.080989
vt 0.096744 0.133004
vt 0.040819 0.133008
vt 0.870968 0.322508
vt 0.926871 0.324061
vt 0.915593 0.729949
vt 0.859690 0.728395
vt 0.839372 0.730030
vt 0.783448 0.729979
vt 0.783814 0.323935
vt 0.839739 0.323986
vn 0.000000 0.000000 1.000000
vn 0.000000 0.000000 1.000000
vn 0.000000 0.000000 1.000000
vn 0.000000 0.000000 1.000000
vn 0.000000 0.000000 -1.000000
vn 0.000000 0.000000 -1.000000
vn 0.000000 0.000000 -1.000000
vn 0.000000 0.000000 -1.000000
vn 0.000000 -1.000000 0.000000
vn 0.000000 -1.000000 0.000000
vn 0.000000 -1.000000 0.000000
vn 0.000000 -1.000000 0.000000
vn 1.000000 0.000000 0.000000
vn 1.000000 0.000000 0.000000
vn 1.000000 0.000000 0.000000
vn 1.000000 0.000000 0.000000
vn -1.000000 0.000000 0.000000
vn -1.000000 0.000000 0.000000
vn -1.000000 0.000000 0.000000
vn -1.000000 0.000000 0.000000
s off
g Piattaforma_2 pCube12
usemtl initialShadingGroup
f 9/37/25 10/38/26 12/39/27 11/40/28
f 13/41/29 14/42/30 16/43/31 15/44/32
f 15/33/33 16/34/34 10/35/35 9/36/36
f 10/25/37 16/26/38 14/27/39 12/28/40
f 15/29/41 9/30/42 11/31/43 13/32/44
g default
v -285.881523 35.503061 -20.673735
v -274.692820 35.503061 -20.673735
v -285.881523 39.512518 -20.673735
v -274.692820 39.512518 -20.673735
v -285.881523 39.512518 -31.862438
v -274.692820 39.512518 -31.862438
v -285.881523 35.503061 -31.862438
v -274.692820 35.503061 -31.862438
vt 0.877449 0.207524
vt 0.919432 0.207518
vt 0.919434 0.222563
vt 0.877451 0.222569
vt 0.693811 0.163443
vt 0.735795 0.163437
vt 0.735797 0.178482
vt 0.693813 0.178488
vt 0.100525 0.080489
vt 0.142509 0.080489
vt 0.142509 0.122473
vt 0.100525 0.122473
vt 0.784073 0.179986
vt 0.826056 0.179980
vt 0.826058 0.195025
vt 0.784075 0.195031
vt 0.874334 0.163443
vt 0.916318 0.163437
vt 0.916320 0.178482
vt 0.874336 0.178488
vn 0.000000 0.000000 1.000000
vn 0.000000 0.000000 1.000000
vn 0.000000 0.000000 1.000000
vn 0.000000 0.000000 1.000000
vn 0.000000 1.000000 0.000000
vn 0.000000 1.000000 0.000000
vn 0.000000 1.000000 0.000000
vn 0.000000 1.000000 0.000000
vn 0.000000 0.000000 -1.000000
vn 0.000000 0.000000 -1.000000
vn 0.000000 0.000000 -1.000000
vn 0.000000 0.000000 -1.000000
vn 1.000000 0.000000 0.000000
vn 1.000000 0.000000 0.000000
vn 1.000000 0.000000 0.000000
vn 1.000000 0.000000 0.000000
vn -1.000000 0.000000 0.000000
vn -1.000000 0.000000 0.000000
vn -1.000000 0.000000 0.000000
vn -1.000000 0.000000 0.000000
s off
g Piattaforma_2 pCube15 Bulloni
usemtl initialShadingGroup
f 17/57/45 18/58/46 20/59/47 19/60/48
f 19/53/49 20/54/50 22/55/51 21/56/52
f 21/61/53 22/62/54 24/63/55 23/64/56
f 18/45/57 24/46/58 22/47/59 20/48/60
f 23/49/61 17/50/62 19/51/63 21/52/64
g default
v -285.881523 35.503061 31.018190
v -274.692820 35.503061 31.018190
v -285.881523 39.512518 31.018190
v -274.692820 39.512518 31.018190
v -285.881523 39.512518 19.829487
v -274.692820 39.512518 19.829487
v -285.881523 35.503061 19.829487
v -274.692820 35.503061 19.829487
vt 0.877998 0.248862
vt 0.919981 0.248856
vt 0.919983 0.263901
vt 0.878000 0.263907
vt 0.738942 0.163443
vt 0.780926 0.163437
vt 0.780928 0.178482
vt 0.738944 0.178488
vt 0.145656 0.080489
vt 0.187640 0.080489
vt 0.187640 0.122473
vt 0.145656 0.122473
vt 0.829204 0.179986
vt 0.871187 0.179980
vt 0.871189 0.195025
vt 0.829206 0.195031
vt 0.919465 0.163443
vt 0.961449 0.163437
vt 0.961451 0.178482
vt 0.919467 0.178488
vn 0.000000 0.000000 1.000000
vn 0.000000 0.000000 1.000000
vn 0.000000 0.000000 1.000000
vn 0.000000 0.000000 1.000000
vn 0.000000 1.000000 0.000000
vn 0.000000 1.000000 0.000000
vn 0.000000 1.000000 0.000000
vn 0.000000 1.000000 0.000000
vn 0.000000 0.000000 -1.000000
vn 0.000000 0.000000 -1.000000
vn 0.000000 0.000000 -1.000000
vn 0.000000 0.000000 -1.000000
vn 1.000000 0.000000 0.000000
vn 1.000000 0.000000 0.000000
vn 1.000000 0.000000 0.000000
vn 1.000000 0.000000 0.000000
vn -1.000000 0.000000 0.000000
vn -1.000000 0.000000 0.000000
vn -1.000000 0.000000 0.000000
vn -1.000000 0.000000 0.000000
s off
g Piattaforma_2 Bulloni pCube16
usemtl initialShadingGroup
f 25/77/65 26/78/66 28/79/67 27/80/68
f 27/73/69 28/74/70 30/75/71 29/76/72
f 29/81/73 30/82/74 32/83/75 31/84/76
f 26/65/77 32/66/78 30/67/79 28/68/80
f 31/69/81 25/70/82 27/71/83 29/72/84
g default
v -139.762479 35.503061 31.018190
v -128.573776 35.503061 31.018190
v -139.762479 39.512518 31.018190
v -128.573776 39.512518 31.018190
v -139.762479 39.512518 19.829487
v -128.573776 39.512518 19.829487
v -139.762479 35.503061 19.829487
v -128.573776 35.503061 19.829487
vt 0.693811 0.179986
vt 0.735795 0.179980
vt 0.735797 0.195025
vt 0.693813 0.195031
vt 0.784073 0.163443
vt 0.826056 0.163437
vt 0.826058 0.178482
vt 0.784075 0.178488
vt 0.190787 0.080489
vt 0.232771 0.080489
vt 0.232771 0.122473
vt 0.190787 0.122473
vt 0.878363 0.228637
vt 0.920346 0.228631
vt 0.920348 0.243675
vt 0.878365 0.243681
vt 0.876133 0.186554
vt 0.918117 0.186548
vt 0.918119 0.201593
vt 0.876135 0.201599
vn 0.000000 0.000000 1.000000
vn 0.000000 0.000000 1.000000
vn 0.000000 0.000000 1.000000
vn 0.000000 0.000000 1.000000
vn 0.000000 1.000000 0.000000
vn 0.000000 1.000000 0.000000
vn 0.000000 1.000000 0.000000
vn 0.000000 1.000000 0.000000
vn 0.000000 0.000000 -1.000000
vn 0.000000 0.000000 -1.000000
vn 0.000000 0.000000 -1.000000
vn 0.000000 0.000000 -1.000000
vn 1.000000 0.000000 0.000000
vn 1.000000 0.000000 0.000000
vn 1.000000 0.000000 0.000000
vn 1.000000 0.000000 0.000000
vn -1.000000 0.000000 0.000000
vn -1.000000 0.000000 0.000000
vn -1.000000 0.000000 0.000000
vn -1.000000 0.000000 0.000000
s off
g Piattaforma_2 Bulloni pCube13
usemtl initialShadingGroup
f 33/97/85 34/98/86 36/99/87 35/100/88
f 35/93/89 36/94/90 38/95/91 37/96/92
f 37/101/93 38/102/94 40/103/95 39/104/96
f 34/85/97 40/86/98 38/87/99 36/88/100
f 39/89/101 33/90/102 35/91/103 37/92/104
g default
v -139.762479 35.503061 -20.673735
v -128.573776 35.503061 -20.673735
v -139.762479 39.512518 -20.673735
v -128.573776 39.512518 -20.673735
v -139.762479 39.512518 -31.862438
v -128.573776 39.512518 -31.862438
v -139.762479 35.503061 -31.862438
v -128.573776 35.503061 -31.862438
vt 0.738942 0.179986
vt 0.780926 0.179980
vt 0.780928 0.195025
vt 0.738944 0.195031
vt 0.829204 0.163443
vt 0.871187 0.163437
vt 0.871189 0.178482
vt 0.829206 0.178488
vt 0.235918 0.080489
vt 0.277901 0.080489
vt 0.277901 0.122473
vt 0.235918 0.122473
vt 0.877998 0.269628
vt 0.919981 0.269622
vt 0.919983 0.284667
vt 0.878000 0.284673
vt 0.877249 0.289869
vt 0.919232 0.289863
vt 0.919234 0.304908
vt 0.877251 0.304914
vn 0.000000 0.000000 1.000000
vn 0.000000 0.000000 1.000000
vn 0.000000 0.000000 1.000000
vn 0.000000 0.000000 1.000000
vn 0.000000 1.000000 0.000000
vn 0.000000 1.000000 0.000000
vn 0.000000 1.000000 0.000000
vn 0.000000 1.000000 0.000000
vn 0.000000 0.000000 -1.000000
vn 0.000000 0.000000 -1.000000
vn 0.000000 0.000000 -1.000000
vn 0.000000 0.000000 -1.000000
vn 1.000000 0.000000 0.000000
vn 1.000000 0.000000 0.000000
vn 1.000000 0.000000 0.000000
vn 1.000000 0.000000 0.000000
vn -1.000000 0.000000 0.000000
vn -1.000000 0.000000 0.000000
vn -1.000000 0.000000 0.000000
vn -1.000000 0.000000 0.000000
s off
g Piattaforma_2 Bulloni pCube14
usemtl initialShadingGroup
f 41/117/105 42/118/106 44/119/107 43/120/108
f 43/113/109 44/114/110 46/115/111 45/116/112
f 45/121/113 46/122/114 48/123/115 47/124/116
f 42/105/117 48/106/118 46/107/119 44/108/120
f 47/109/121 41/110/122 43/111/123 45/112/124
