# This file uses centimeters as units for non-parametric coordinates.

mtllib Tubo4.mtl
g default
v -0.450101 0.408375 0.221720
v -0.450101 0.408375 -0.221721
v -0.450101 0.091861 -0.221721
v -0.450101 0.091861 0.221720
v 0.813985 0.091861 -0.220987
v 0.813985 0.091861 0.220987
v 0.813947 0.408375 0.221720
v 0.813947 0.408375 -0.221721
v 0.813688 0.054893 -0.261525
v 0.813688 0.054893 0.261525
v 0.855380 0.054893 -0.262260
v 0.855380 0.054893 0.262260
v 0.813649 0.445343 0.262354
v 0.855578 0.445343 0.262357
v 0.813649 0.445343 -0.262353
v 0.855578 0.445343 -0.262357
v 0.399035 0.091861 -0.215109
v 0.399035 0.091861 0.215109
v 0.398688 0.408375 0.221720
v 0.398688 0.408375 -0.221721
v 0.477938 0.091861 -0.215036
v 0.477939 0.091861 0.215036
v 0.477587 0.408375 0.221720
v 0.477587 0.408375 -0.221721
v 0.440878 0.054893 -0.250536
v 0.440879 0.054893 0.250536
v 0.477619 0.054893 -0.251192
v 0.477619 0.054893 0.251192
v 0.439922 0.445343 0.259516
v 0.477253 0.445343 0.259516
v 0.439922 0.445343 -0.259517
v 0.477253 0.445343 -0.259516
v 0.399356 0.054893 -0.251270
v 0.399356 0.054893 0.251270
v 0.399022 0.445343 0.259511
v 0.399022 0.445343 -0.259511
v -0.412693 0.091861 -0.221060
v -0.412693 0.091861 0.221060
v -0.412728 0.408375 0.221720
v -0.412728 0.408375 -0.221721
v -0.449774 0.054893 -0.258649
v -0.449775 0.054893 0.258649
v -0.412367 0.054893 -0.257988
v -0.412367 0.054893 0.257988
v -0.412401 0.445343 -0.258726
v -0.449774 0.445343 -0.258726
v -0.449774 0.445343 0.258726
v -0.412401 0.445343 0.258726
v -0.818610 0.408375 0.221720
v -0.818610 0.408375 -0.221721
v -0.818610 0.091861 -0.221721
v -0.818610 0.091861 0.221720
v -0.450101 -0.445343 -0.221721
v -0.450101 -0.445343 0.221720
v -0.818610 -0.445343 0.221720
v -0.818610 -0.445343 -0.221721
v -0.450101 -0.403917 -0.221721
v -0.818610 -0.403917 -0.221721
v -0.818610 -0.403917 0.221720
v -0.450101 -0.403917 0.221720
v -0.413133 -0.403917 -0.258689
v -0.855578 -0.403917 -0.258689
v -0.413133 -0.445343 -0.258689
v -0.855578 -0.445343 -0.258689
v -0.855578 -0.403917 0.258689
v -0.855578 -0.445343 0.258689
v -0.413133 -0.403917 0.258689
v -0.413133 -0.445343 0.258689
v -0.450101 -0.079893 -0.221721
v -0.818610 -0.079893 -0.221721
v -0.818610 -0.079893 0.221720
v -0.450101 -0.079893 0.221720
v -0.450101 -0.158602 -0.221721
v -0.818610 -0.158602 -0.221721
v -0.818610 -0.158602 0.221720
v -0.450101 -0.158602 0.221720
v -0.450101 -0.158602 -0.221721
v -0.818610 -0.158602 -0.221721
v -0.818610 -0.158602 0.221720
v -0.450101 -0.158602 0.221720
v -0.450101 -0.079893 -0.221721
v -0.818610 -0.079893 -0.221721
v -0.818610 -0.079893 0.221720
v -0.450101 -0.079893 0.221720
v -0.413133 -0.121319 -0.258689
v -0.855578 -0.121319 -0.258689
v -0.413133 -0.158602 -0.258689
v -0.855578 -0.158602 -0.258689
v -0.855578 -0.121319 0.258689
v -0.855578 -0.158602 0.258689
v -0.413133 -0.121319 0.258689
v -0.413133 -0.158602 0.258689
v -0.413133 -0.079893 -0.258689
v -0.855578 -0.079893 -0.258689
v -0.855578 -0.079893 0.258689
v -0.413133 -0.079893 0.258689
vt 0.927194 0.408787
vt 0.927195 0.222968
vt 0.940632 0.223206
vt 0.940632 0.408549
vt 0.895480 0.363253
vt 0.895493 0.503507
vt 0.882054 0.503507
vt 0.882055 0.363253
vt 0.029399 0.421223
vt 0.029399 0.235348
vt 0.042824 0.235348
vt 0.042824 0.421223
vt 0.897102 0.503507
vt 0.897101 0.363253
vt 0.910540 0.363252
vt 0.910527 0.503507
vt 0.611079 0.380430
vt 0.611079 0.200439
vt 0.624277 0.200204
vt 0.624277 0.380665
vt 0.896745 0.363253
vt 0.897088 0.222962
vt 0.910287 0.222967
vt 0.910155 0.363252
vt 0.951917 0.200799
vt 0.951917 0.014357
vt 0.965327 0.014357
vt 0.965327 0.200798
vt 0.102641 0.145698
vt 0.102790 0.285984
vt 0.089590 0.285990
vt 0.089231 0.145699
vt 0.014352 0.394143
vt 0.014352 0.206258
vt 0.029328 0.205994
vt 0.029328 0.394407
vt 0.741617 0.449613
vt 0.741629 0.309359
vt 0.756608 0.309359
vt 0.756678 0.449613
vt 0.942241 0.389280
vt 0.942241 0.200800
vt 0.957302 0.200799
vt 0.957302 0.389281
vt 0.957300 0.499984
vt 0.957288 0.359729
vt 0.972349 0.359729
vt 0.972278 0.499984
vt 0.810068 0.794593
vt 0.810068 0.953355
vt 0.796788 0.967917
vt 0.796788 0.780031
vt 0.923763 0.794329
vt 0.937043 0.779733
vt 0.923763 0.953618
vt 0.937043 0.968214
vt 0.596164 0.380693
vt 0.596164 0.200176
vt 0.882054 0.363253
vt 0.882170 0.222968
vt 0.937226 0.200797
vt 0.937226 0.014358
vt 0.074672 0.285986
vt 0.074540 0.145701
vt 0.756663 0.775596
vt 0.759372 0.621133
vt 0.880103 0.621112
vt 0.877319 0.779850
vt 0.759255 0.348125
vt 0.759385 0.234404
vt 0.880116 0.234433
vt 0.880079 0.348129
vt 0.759250 0.507413
vt 0.880074 0.507417
vt 0.669631 0.804574
vt 0.669631 0.959060
vt 0.656351 0.972048
vt 0.656351 0.791586
vt 0.783326 0.961461
vt 0.796606 0.975038
vt 0.783326 0.802172
vt 0.796606 0.788595
vt 0.148007 0.813622
vt 0.148007 0.968161
vt 0.134727 0.981151
vt 0.134727 0.800632
vt 0.261702 0.811248
vt 0.274982 0.797672
vt 0.261702 0.970536
vt 0.274982 0.984111
vt 0.594975 0.612773
vt 0.436166 0.613924
vt 0.436190 0.322335
vt 0.590725 0.321215
vt 0.163182 0.613937
vt 0.049487 0.613925
vt 0.049462 0.322336
vt 0.163181 0.322468
vt 0.322471 0.613937
vt 0.322470 0.322468
vt 0.378726 0.813065
vt 0.378725 0.972353
vt 0.365445 0.985619
vt 0.365446 0.799799
vt 0.529194 0.813189
vt 0.529194 0.972003
vt 0.515914 0.985268
vt 0.515914 0.799923
vt 0.642889 0.812951
vt 0.656169 0.799658
vt 0.492421 0.972353
vt 0.505700 0.985647
vt 0.492421 0.813065
vt 0.505701 0.799771
vt 0.642889 0.972240
vt 0.656169 0.985533
vt 0.465302 0.322120
vt 0.306013 0.322120
vt 0.306013 0.189748
vt 0.465302 0.189748
vt 0.173641 0.189749
vt 0.173641 0.076054
vt 0.306013 0.076053
vt 0.597674 0.076053
vt 0.597674 0.189748
vt 0.465302 0.076053
vt 0.014352 0.076054
vt 0.014352 0.014358
vt 0.173641 0.014357
vt 0.465301 0.014357
vt 0.597673 0.014357
vt 0.306013 0.014357
vt 0.465301 0.014357
vt 0.306013 0.014357
vt 0.119514 0.289209
vt 0.119514 0.130278
vt 0.132906 0.130278
vt 0.132906 0.289209
vt 0.614572 0.014357
vt 0.614572 0.200204
vt 0.601179 0.200204
vt 0.601179 0.014357
vt 0.970680 0.200799
vt 0.970680 0.359729
vt 0.957288 0.359729
vt 0.957288 0.200799
vt 0.644665 0.014357
vt 0.644665 0.200204
vt 0.631273 0.200204
vt 0.631273 0.014357
vt 0.661367 0.173288
vt 0.661367 0.014357
vt 0.676247 0.014357
vt 0.676247 0.173288
vt 0.927028 0.222968
vt 0.927028 0.408815
vt 0.912148 0.408815
vt 0.912148 0.222968
vt 0.641138 0.200204
vt 0.641138 0.359135
vt 0.626257 0.359135
vt 0.626257 0.200204
vt 0.982200 0.014357
vt 0.982200 0.200204
vt 0.967319 0.200204
vt 0.967319 0.014357
vt 0.288444 0.786505
vt 0.420816 0.786505
vt 0.434095 0.799784
vt 0.275164 0.799784
vt 0.581315 0.627203
vt 0.448943 0.627203
vt 0.435664 0.613924
vt 0.594595 0.613924
vt 0.288444 0.627216
vt 0.275164 0.613937
vt 0.448943 0.786492
vt 0.435664 0.799771
vt 0.420816 0.627216
vt 0.434095 0.613937
vt 0.581315 0.786492
vt 0.594595 0.799771
vt 0.104633 0.289209
vt 0.104633 0.130278
vt 0.629452 0.014357
vt 0.629452 0.200204
vt 0.985561 0.200799
vt 0.985561 0.359729
vt 0.659546 0.014357
vt 0.659546 0.200204
vt 0.766040 0.187872
vt 0.739987 0.317657
vt 0.653591 0.300309
vt 0.679646 0.170526
vt 0.797392 0.031697
vt 0.710998 0.014353
vt 0.708627 0.473831
vt 0.682558 0.603613
vt 0.596164 0.586260
vt 0.622229 0.456479
vt 0.766044 0.187872
vt 0.739990 0.317655
vt 0.797394 0.031697
vt 0.766044 0.187869
vt 0.708629 0.473832
vt 0.682560 0.603611
vt 0.739990 0.317659
vt 0.708631 0.473828
vt 0.087030 0.318340
vt 0.204825 0.257952
vt 0.204828 0.257955
vt 0.087031 0.318347
vt 0.014354 0.176564
vt 0.014352 0.176564
vt 0.132175 0.116184
vt 0.132175 0.116180
vt 0.741815 0.616878
vt 0.609443 0.616878
vt 0.596164 0.603599
vt 0.755095 0.603599
vt 0.609443 0.776167
vt 0.596164 0.789446
vt 0.741815 0.776167
vt 0.755095 0.789446
vt 0.027632 0.786505
vt 0.160004 0.786505
vt 0.173283 0.799784
vt 0.014352 0.799784
vt 0.027632 0.627217
vt 0.014352 0.613937
vt 0.160004 0.627217
vt 0.173283 0.613937
vt 0.796788 0.222935
vt 0.796788 0.034522
vt 0.937042 0.034488
vt 0.937042 0.222970
vn 0.000000 -1.000000 0.000000
vn 0.000000 -1.000000 0.000000
vn 0.000000 -1.000000 0.000000
vn 0.000000 -1.000000 0.000000
vn 0.008839 -0.001044 -0.999960
vn 0.008839 -0.001044 -0.999960
vn 0.008839 -0.001044 -0.999960
vn 0.008839 -0.001044 -0.999960
vn 0.000001 1.000000 0.000000
vn 0.000001 1.000000 0.000000
vn 0.000001 1.000000 0.000000
vn 0.000001 1.000000 0.000000
vn 0.008839 -0.001044 0.999960
vn 0.008839 -0.001044 0.999960
vn 0.008839 -0.001044 0.999960
vn 0.008839 -0.001044 0.999960
vn 0.000000 -1.000000 0.000000
vn 0.000000 -1.000000 0.000000
vn 0.000000 -1.000000 0.000000
vn 0.000000 -1.000000 0.000000
vn 0.000481 -0.022097 0.999756
vn 0.000454 -0.022097 0.999756
vn -0.008848 -0.022168 0.999715
vn -0.008848 -0.022168 0.999715
vn 0.000001 1.000000 0.000000
vn 0.000001 1.000000 0.000000
vn 0.000001 1.000000 0.000000
vn 0.000001 1.000000 0.000000
vn -0.008848 -0.022168 -0.999715
vn -0.008848 -0.022168 -0.999715
vn 0.000454 -0.022097 -0.999756
vn 0.000481 -0.022097 -0.999756
vn 0.000000 -1.000000 0.000000
vn 0.000000 -1.000000 0.000000
vn 0.000000 -1.000000 0.000000
vn 0.000000 -1.000000 0.000000
vn -0.008831 -0.001182 0.999960
vn -0.008831 -0.001182 0.999960
vn -0.008831 -0.001182 0.999960
vn -0.008831 -0.001182 0.999960
vn 0.000000 1.000000 0.000000
vn 0.000000 1.000000 0.000000
vn 0.000000 1.000000 0.000000
vn 0.000000 1.000000 0.000000
vn -0.008831 -0.001182 -0.999960
vn -0.008831 -0.001182 -0.999960
vn -0.008831 -0.001182 -0.999960
vn -0.008831 -0.001182 -0.999960
vn -0.999985 0.004491 -0.003194
vn -0.999985 0.004491 0.003194
vn -0.999985 0.004169 0.003484
vn -0.999985 0.004169 -0.003484
vn -0.999984 -0.004588 -0.003190
vn -0.999985 0.004491 -0.003194
vn -0.999985 0.004169 -0.003484
vn -0.999985 -0.004278 -0.003475
vn -0.999984 -0.004588 0.003190
vn -0.999984 -0.004588 -0.003190
vn -0.999985 -0.004278 -0.003475
vn -0.999985 -0.004278 0.003475
vn -0.999985 0.004491 0.003194
vn -0.999984 -0.004588 0.003190
vn -0.999985 -0.004278 0.003475
vn -0.999985 0.004169 0.003484
vn 0.000000 -1.000000 0.000000
vn 0.000000 -1.000000 0.000000
vn 0.000000 -1.000000 0.000000
vn 0.000000 -1.000000 0.000000
vn 0.008839 -0.022032 0.999718
vn 0.008839 -0.022032 0.999718
vn 0.000454 -0.022097 0.999756
vn 0.000481 -0.022097 0.999756
vn 0.000000 1.000000 0.000000
vn 0.000000 1.000000 0.000000
vn 0.000001 1.000000 0.000000
vn 0.000001 1.000000 0.000000
vn 0.000454 -0.022097 -0.999756
vn 0.008839 -0.022032 -0.999718
vn 0.008839 -0.022032 -0.999718
vn 0.000481 -0.022097 -0.999756
vn 0.000000 -1.000000 0.000000
vn 0.000000 -1.000000 0.000000
vn 0.000000 -1.000000 0.000000
vn 0.000000 -1.000000 0.000000
vn -0.008850 -0.011722 0.999892
vn -0.008850 -0.011722 0.999892
vn -0.008850 -0.011722 0.999892
vn -0.008850 -0.011722 0.999892
vn 0.000000 1.000000 0.000000
vn 0.000000 1.000000 0.000000
vn 0.000000 1.000000 0.000000
vn 0.000000 1.000000 0.000000
vn -0.008850 -0.011722 -0.999892
vn -0.008850 -0.011722 -0.999892
vn -0.008850 -0.011722 -0.999892
vn -0.008850 -0.011722 -0.999892
vn 0.999982 -0.004566 -0.003818
vn 0.999982 -0.004566 0.003818
vn 0.999982 -0.004570 0.003815
vn 0.999982 -0.004570 -0.003815
vn 0.999982 -0.004566 0.003818
vn 0.999977 0.005568 0.003748
vn 0.999977 0.005565 0.003751
vn 0.999982 -0.004570 0.003815
vn 0.999977 0.005568 0.003748
vn 0.999977 0.005568 -0.003747
vn 0.999977 0.005565 -0.003751
vn 0.999977 0.005565 0.003751
vn 0.999977 0.005568 -0.003747
vn 0.999982 -0.004566 -0.003818
vn 0.999982 -0.004570 -0.003815
vn 0.999977 0.005565 -0.003751
vn -0.999978 -0.005413 0.003813
vn -0.999978 -0.005413 -0.003813
vn -0.999978 -0.005416 -0.003809
vn -0.999978 -0.005416 0.003809
vn -0.999982 0.004723 0.003743
vn -0.999978 -0.005413 0.003813
vn -0.999978 -0.005416 0.003809
vn -0.999982 0.004719 0.003746
vn -0.999982 0.004723 -0.003743
vn -0.999982 0.004723 0.003743
vn -0.999982 0.004719 0.003746
vn -0.999982 0.004719 -0.003747
vn -0.999978 -0.005413 -0.003813
vn -0.999982 0.004723 -0.003743
vn -0.999982 0.004719 -0.003747
vn -0.999978 -0.005416 -0.003809
vn 0.000000 -1.000000 0.000000
vn 0.000000 -1.000000 0.000000
vn 0.000000 -1.000000 0.000000
vn 0.000000 -1.000000 0.000000
vn 0.003666 -0.011485 0.999927
vn 0.003666 -0.011485 0.999927
vn 0.003666 -0.011485 0.999927
vn 0.003666 -0.011485 0.999927
vn 0.000000 1.000000 0.000000
vn 0.000000 1.000000 0.000000
vn 0.000000 1.000000 0.000000
vn 0.000000 1.000000 0.000000
vn 0.003666 -0.011485 -0.999927
vn 0.003666 -0.011485 -0.999927
vn 0.003666 -0.011485 -0.999927
vn 0.003666 -0.011485 -0.999927
vn -0.999980 -0.005087 0.003746
vn -0.999980 -0.005087 -0.003751
vn -0.999980 -0.005091 -0.003748
vn -0.999980 -0.005090 0.003743
vn 0.999980 0.005132 0.003755
vn 0.999980 0.005132 -0.003751
vn 0.999980 0.005129 -0.003754
vn 0.999980 0.005129 0.003758
vn 0.999980 -0.005049 0.003751
vn 0.999980 0.005132 0.003755
vn 0.999980 0.005129 0.003758
vn 0.999980 -0.005053 0.003747
vn -0.999980 -0.005087 -0.003751
vn -0.999980 0.005100 -0.003749
vn -0.999980 0.005096 -0.003752
vn -0.999980 -0.005091 -0.003748
vn -0.999980 0.005100 -0.003749
vn -0.999980 0.005100 0.003744
vn -0.999980 0.005096 0.003747
vn -0.999980 0.005096 -0.003752
vn 0.999980 -0.005049 -0.003747
vn 0.999980 -0.005049 0.003751
vn 0.999980 -0.005053 0.003747
vn 0.999980 -0.005052 -0.003743
vn -0.999980 0.005100 0.003744
vn -0.999980 -0.005087 0.003746
vn -0.999980 -0.005090 0.003743
vn -0.999980 0.005096 0.003747
vn 0.999980 0.005132 -0.003751
vn 0.999980 -0.005049 -0.003747
vn 0.999980 -0.005052 -0.003743
vn 0.999980 0.005129 -0.003754
vn 0.000000 1.000000 0.000000
vn 0.000000 1.000000 0.000000
vn 0.000000 1.000000 0.000000
vn 0.000000 1.000000 0.000000
vn 0.000000 0.000000 -1.000000
vn 0.000000 0.000000 -1.000000
vn 0.000000 0.000000 -1.000000
vn 0.000000 0.000000 -1.000000
vn 0.000000 0.000000 1.000000
vn 0.000000 0.000000 1.000000
vn 0.000000 0.000000 1.000000
vn 0.000000 0.000000 1.000000
vn -1.000000 0.000000 0.000000
vn -1.000000 0.000000 0.000000
vn -1.000000 0.000000 0.000000
vn -1.000000 0.000000 0.000000
vn 1.000000 0.000000 0.000000
vn 1.000000 0.000000 0.000000
vn 1.000000 0.000000 0.000000
vn 1.000000 0.000000 0.000000
vn 0.000000 0.000000 1.000000
vn 0.000000 0.000000 1.000000
vn 0.000000 0.000000 1.000000
vn 0.000000 0.000000 1.000000
vn -1.000000 0.000000 0.000000
vn -1.000000 0.000000 0.000000
vn -1.000000 0.000000 0.000000
vn -1.000000 0.000000 0.000000
vn 0.000000 0.000000 -1.000000
vn 0.000000 0.000000 -1.000000
vn 0.000000 0.000000 -1.000000
vn 0.000000 0.000000 -1.000000
vn 0.000000 0.000000 -1.000000
vn 0.000000 0.000000 -1.000000
vn 0.000000 0.000000 -1.000000
vn 0.000000 0.000000 -1.000000
vn -1.000000 0.000000 0.000000
vn -1.000000 0.000000 0.000000
vn -1.000000 0.000000 0.000000
vn -1.000000 0.000000 0.000000
vn 0.000000 0.000000 1.000000
vn 0.000000 0.000000 1.000000
vn 0.000000 0.000000 1.000000
vn 0.000000 0.000000 1.000000
vn 1.000000 0.000000 0.000000
vn 1.000000 0.000000 0.000000
vn 1.000000 0.000000 0.000000
vn 1.000000 0.000000 0.000000
vn 0.000000 0.000000 -1.000000
vn 0.000000 0.000000 -1.000000
vn 0.000000 0.000000 -1.000000
vn 0.000000 0.000000 -1.000000
vn -1.000000 0.000000 0.000000
vn -1.000000 0.000000 0.000000
vn -1.000000 0.000000 0.000000
vn -1.000000 0.000000 0.000000
vn 0.000000 0.000000 1.000000
vn 0.000000 0.000000 1.000000
vn 0.000000 0.000000 1.000000
vn 0.000000 0.000000 1.000000
vn 1.000000 0.000000 0.000000
vn 1.000000 0.000000 0.000000
vn 1.000000 0.000000 0.000000
vn 1.000000 0.000000 0.000000
vn 0.000000 1.000000 0.000000
vn 0.000000 1.000000 0.000000
vn 0.000000 1.000000 0.000000
vn 0.000000 1.000000 0.000000
vn -0.000002 -1.000000 0.000001
vn 0.000002 -1.000000 0.000001
vn 0.000002 -1.000000 0.000001
vn -0.000002 -1.000000 0.000001
vn 0.000000 1.000000 0.000000
vn 0.000000 1.000000 0.000000
vn 0.000000 1.000000 0.000000
vn 0.000000 1.000000 0.000000
vn 0.000002 -1.000000 0.000001
vn 0.000002 -1.000000 -0.000001
vn 0.000002 -1.000000 -0.000001
vn 0.000002 -1.000000 0.000001
vn 0.000000 1.000000 0.000000
vn 0.000000 1.000000 0.000000
vn 0.000000 1.000000 0.000000
vn 0.000000 1.000000 0.000000
vn 0.000002 -1.000000 -0.000001
vn -0.000002 -1.000000 -0.000001
vn -0.000002 -1.000000 -0.000001
vn 0.000002 -1.000000 -0.000001
vn 0.000000 1.000000 0.000000
vn 0.000000 1.000000 0.000000
vn 0.000000 1.000000 0.000000
vn 0.000000 1.000000 0.000000
vn -0.000002 -1.000000 -0.000001
vn -0.000002 -1.000000 0.000001
vn -0.000002 -1.000000 0.000001
vn -0.000002 -1.000000 -0.000001
vn 0.000000 0.000000 -1.000000
vn 0.000000 0.000000 -1.000000
vn 0.000000 0.000000 -1.000000
vn 0.000000 0.000000 -1.000000
vn -1.000000 0.000000 0.000000
vn -1.000000 0.000000 0.000000
vn -1.000000 0.000000 0.000000
vn -1.000000 0.000000 0.000000
vn 0.000000 0.000000 1.000000
vn 0.000000 0.000000 1.000000
vn 0.000000 0.000000 1.000000
vn 0.000000 0.000000 1.000000
vn 1.000000 0.000000 0.000000
vn 1.000000 0.000000 0.000000
vn 1.000000 0.000000 0.000000
vn 1.000000 0.000000 0.000000
vn 0.000000 0.000000 -1.000000
vn 0.000000 0.000000 -1.000000
vn 0.000000 0.000000 -1.000000
vn 0.000000 0.000000 -1.000000
vn -1.000000 0.000000 0.000000
vn -1.000000 0.000000 0.000000
vn -1.000000 0.000000 0.000000
vn -1.000000 0.000000 0.000000
vn 0.000000 0.000000 1.000000
vn 0.000000 0.000000 1.000000
vn 0.000000 0.000000 1.000000
vn 0.000000 0.000000 1.000000
vn 1.000000 0.000000 0.000000
vn 1.000000 0.000000 0.000000
vn 1.000000 0.000000 0.000000
vn 1.000000 0.000000 0.000000
vn 0.000000 0.000000 -1.000000
vn 0.000000 0.000000 -1.000000
vn 0.000000 0.000000 -1.000000
vn 0.000000 0.000000 -1.000000
vn -1.000000 0.000000 0.000000
vn -1.000000 0.000000 0.000000
vn -1.000000 0.000000 0.000000
vn -1.000000 0.000000 0.000000
vn 0.000000 0.000000 1.000000
vn 0.000000 0.000000 1.000000
vn 0.000000 0.000000 1.000000
vn 0.000000 0.000000 1.000000
vn 1.000000 0.000000 0.000000
vn 1.000000 0.000000 0.000000
vn 1.000000 0.000000 0.000000
vn 1.000000 0.000000 0.000000
vn 0.000000 0.000000 1.000000
vn 0.000000 0.000000 1.000000
vn 0.000000 0.000000 1.000000
vn 0.000000 0.000000 1.000000
vn 1.000000 0.000000 0.000000
vn 1.000000 0.000000 0.000000
vn 1.000000 0.000000 0.000000
vn 1.000000 0.000000 0.000000
vn 0.000000 0.000000 -1.000000
vn 0.000000 0.000000 -1.000000
vn 0.000000 0.000000 -1.000000
vn 0.000000 0.000000 -1.000000
vn -1.000000 0.000000 0.000000
vn -1.000000 0.000000 0.000000
vn -1.000000 0.000000 0.000000
vn -1.000000 0.000000 0.000000
vn 0.000000 -1.000000 0.000000
vn 0.000000 -1.000000 0.000000
vn 0.000000 -1.000000 0.000000
vn 0.000000 -1.000000 0.000000
vn 0.000000 -1.000000 0.000000
vn 0.000000 -1.000000 0.000000
vn 0.000000 -1.000000 0.000000
vn 0.000000 -1.000000 0.000000
vn 0.000000 -1.000000 0.000000
vn 0.000000 -1.000000 0.000000
vn 0.000000 -1.000000 0.000000
vn 0.000000 -1.000000 0.000000
vn 0.000000 -1.000000 0.000000
vn 0.000000 -1.000000 0.000000
vn 0.000000 -1.000000 0.000000
vn 0.000000 -1.000000 0.000000
vn 0.000000 1.000000 0.000000
vn 0.000000 1.000000 0.000000
vn 0.000000 1.000000 0.000000
vn 0.000000 1.000000 0.000000
vn 0.000000 1.000000 0.000000
vn 0.000000 1.000000 0.000000
vn 0.000000 1.000000 0.000000
vn 0.000000 1.000000 0.000000
vn 0.000000 1.000000 0.000000
vn 0.000000 1.000000 0.000000
vn 0.000000 1.000000 0.000000
vn 0.000000 1.000000 0.000000
vn 0.000000 1.000000 0.000000
vn 0.000000 1.000000 0.000000
vn 0.000000 1.000000 0.000000
vn 0.000000 1.000000 0.000000
vn 1.000000 -0.000507 0.000000
vn 1.000000 -0.000507 0.000000
vn 1.000000 -0.000507 0.000000
vn 1.000000 -0.000507 0.000000
vn 0.000000 -1.000000 0.000000
vn 0.000000 -1.000000 0.000000
vn 0.000000 -1.000000 0.000000
vn 0.000000 -1.000000 0.000000
s off
g Tubo4:tubo_spezzato_lowtubi_spezzati
usemtl Tubo4:texturedFacets1
f 42/1/1 41/2/2 43/3/3 44/4/4
f 45/5/5 43/6/6 41/7/7 46/8/8
f 46/9/9 47/10/10 48/11/11 45/12/12
f 47/13/13 42/14/14 44/15/15 48/16/16
f 26/17/17 25/18/18 27/19/19 28/20/20
f 29/21/21 26/22/22 28/23/23 30/24/24
f 31/25/25 29/26/26 30/27/27 32/28/28
f 32/29/29 27/30/30 25/31/31 31/32/32
f 10/33/33 9/34/34 11/35/35 12/36/36
f 13/37/37 10/38/38 12/39/39 14/40/40
f 15/41/41 13/42/42 14/43/43 16/44/44
f 9/45/45 15/46/46 16/47/47 11/48/48
f 6/49/49 5/50/50 9/51/51 10/52/52
f 7/53/53 6/49/54 10/52/55 13/54/56
f 8/55/57 7/53/58 13/54/59 15/56/60
f 5/50/61 8/55/62 15/56/63 9/51/64
f 34/57/65 33/58/66 25/18/67 26/17/68
f 35/59/69 34/60/70 26/22/71 29/21/72
f 36/61/73 35/62/74 29/26/75 31/25/76
f 25/31/77 33/63/78 36/64/79 31/32/80
f 22/65/81 21/66/82 5/67/83 6/68/84
f 23/69/85 22/70/86 6/71/87 7/72/88
f 24/73/89 23/69/90 7/72/91 8/74/92
f 5/67/93 21/66/94 24/73/95 8/74/96
f 21/75/97 22/76/98 28/77/99 27/78/100
f 22/76/101 23/79/102 30/80/103 28/77/104
f 23/79/105 24/81/106 32/82/107 30/80/108
f 24/81/109 21/75/110 27/78/111 32/82/112
f 18/83/113 17/84/114 33/85/115 34/86/116
f 19/87/117 18/83/118 34/86/119 35/88/120
f 20/89/121 19/87/122 35/88/123 36/90/124
f 17/84/125 20/89/126 36/90/127 33/85/128
f 38/91/129 37/92/130 17/93/131 18/94/132
f 39/95/133 38/96/134 18/97/135 19/98/136
f 40/99/137 39/95/138 19/98/139 20/100/140
f 17/93/141 37/92/142 40/99/143 20/100/144
f 4/101/145 3/102/146 41/103/147 42/104/148
f 37/105/149 38/106/150 44/107/151 43/108/152
f 40/109/153 37/105/154 43/108/155 45/110/156
f 3/102/157 2/111/158 46/112/159 41/103/160
f 2/111/161 1/113/162 47/114/163 46/112/164
f 39/115/165 40/109/166 45/110/167 48/116/168
f 1/113/169 4/101/170 42/104/171 47/114/172
f 38/106/173 39/115/174 48/116/175 44/107/176
f 1/117/177 2/118/178 50/119/179 49/120/180
f 2/121/181 3/122/182 51/123/183 50/119/184
f 4/124/185 1/125/186 49/120/187 52/126/188
f 50/119/189 51/123/190 52/126/191 49/120/192
f 3/122/193 4/127/194 72/128/195 69/129/196
f 4/124/197 52/126/198 71/130/199 72/131/200
f 52/126/201 51/123/202 70/132/203 71/133/204
f 51/123/205 3/122/206 69/129/207 70/134/208
f 86/135/209 85/136/210 87/137/211 88/138/212
f 89/139/213 86/140/214 88/141/215 90/142/216
f 91/143/217 89/144/218 90/145/219 92/146/220
f 85/147/221 91/148/222 92/149/223 87/150/224
f 62/151/225 61/152/226 63/153/227 64/154/228
f 65/155/229 62/156/230 64/157/231 66/158/232
f 67/159/233 65/160/234 66/161/235 68/162/236
f 61/163/237 67/164/238 68/165/239 63/166/240
f 58/167/241 57/168/242 61/169/243 62/170/244
f 53/171/245 56/172/246 64/173/247 63/174/248
f 59/175/249 58/167/250 62/170/251 65/176/252
f 56/172/253 55/177/254 66/178/255 64/173/256
f 60/179/257 59/175/258 65/176/259 67/180/260
f 55/177/261 54/181/262 68/182/263 66/178/264
f 57/168/265 60/179/266 67/180/267 61/169/268
f 54/181/269 53/171/270 63/174/271 68/182/272
f 94/183/273 93/184/274 85/136/275 86/135/276
f 95/185/277 94/186/278 86/140/279 89/139/280
f 96/187/281 95/188/282 89/144/283 91/143/284
f 93/189/285 96/190/286 91/148/287 85/147/288
f 74/191/289 73/192/290 57/193/291 58/194/292
f 75/195/293 74/191/294 58/194/295 59/196/296
f 76/197/297 75/198/298 59/199/299 60/200/300
f 73/192/301 76/197/302 60/200/303 57/193/304
f 73/192/305 74/191/306 78/201/307 77/202/308
f 74/191/309 75/195/310 79/203/311 78/204/312
f 75/198/313 76/197/314 80/205/315 79/206/316
f 76/197/317 73/192/318 77/207/319 80/208/320
f 70/209/321 69/210/322 81/211/323 82/212/324
f 71/213/325 70/209/326 82/212/327 83/214/328
f 72/215/329 71/213/330 83/214/331 84/216/332
f 69/210/333 72/215/334 84/216/335 81/211/336
f 77/217/337 78/218/338 88/219/339 87/220/340
f 78/218/341 79/221/342 90/222/343 88/219/344
f 79/221/345 80/223/346 92/224/347 90/222/348
f 80/223/349 77/217/350 87/220/351 92/224/352
f 82/225/353 81/226/354 93/227/355 94/228/356
f 83/229/357 82/225/358 94/228/359 95/230/360
f 84/231/361 83/229/362 95/230/363 96/232/364
f 81/226/365 84/231/366 96/232/367 93/227/368
f 12/233/369 11/234/370 16/235/371 14/236/372
f 54/181/373 55/177/374 56/172/375 53/171/376
