# This file uses centimeters as units for non-parametric coordinates.

mtllib Tubo1.mtl
g default
v -0.481106 -0.054314 0.061958
v -0.481106 0.054314 0.061958
v -0.481106 0.054314 -0.061958
v -0.481106 -0.054314 -0.061958
v 0.000000 -0.054314 0.061958
v 0.000000 0.054314 0.061958
v 0.000000 0.054314 -0.061958
v 0.000000 -0.054314 -0.061958
v -0.445925 -0.039326 0.044860
v -0.445925 0.039326 0.044860
v -0.445925 0.039326 -0.044860
v -0.445925 -0.039326 -0.044860
v 0.481106 -0.054314 0.061958
v 0.481106 0.054314 0.061958
v 0.481106 0.054314 -0.061958
v 0.481106 -0.054314 -0.061958
v 0.445925 -0.039326 0.044860
v 0.445925 0.039326 0.044860
v 0.445925 0.039326 -0.044860
v 0.445925 -0.039326 -0.044860
vt 0.387897 0.976397
vt 0.387897 0.498580
vt 0.495782 0.498580
vt 0.495782 0.976397
vt 0.618850 0.498580
vt 0.618850 0.976397
vt 0.726735 0.498580
vt 0.726735 0.976397
vt 0.849804 0.498580
vt 0.849804 0.976397
vt 0.291743 0.979336
vt 0.184078 0.979220
vt 0.199119 0.940444
vt 0.276875 0.940511
vt 0.216245 0.978134
vt 0.093176 0.978134
vt 0.110428 0.940406
vt 0.125383 0.979078
vt 0.017931 0.979269
vt 0.032711 0.940425
vt 0.382402 0.978447
vt 0.259955 0.978348
vt 0.365537 0.940544
vt 0.387897 0.020763
vt 0.495782 0.020763
vt 0.618850 0.020763
vt 0.726735 0.020763
vt 0.849804 0.020763
vt 0.291882 0.020697
vt 0.276995 0.059367
vt 0.199267 0.059358
vt 0.184328 0.020694
vt 0.216089 0.021610
vt 0.110640 0.059334
vt 0.093810 0.021580
vt 0.125526 0.020744
vt 0.032927 0.059306
vt 0.018077 0.020664
vt 0.382454 0.021591
vt 0.365632 0.059366
vt 0.260125 0.021650
vn 0.000000 0.000000 1.000000
vn 0.000000 0.000000 1.000000
vn 0.000000 0.000000 1.000000
vn 0.000000 0.000000 1.000000
vn 0.000000 1.000000 0.000000
vn 0.000000 1.000000 0.000000
vn 0.000000 1.000000 0.000000
vn 0.000000 1.000000 0.000000
vn 0.000000 0.000000 -1.000000
vn 0.000000 0.000000 -1.000000
vn 0.000000 0.000000 -1.000000
vn 0.000000 0.000000 -1.000000
vn 0.000000 -1.000000 0.000000
vn 0.000000 -1.000000 0.000000
vn 0.000000 -1.000000 0.000000
vn 0.000000 -1.000000 0.000000
vn -0.437095 0.000000 -0.899415
vn -0.437095 0.000000 -0.899415
vn -0.437095 0.000000 -0.899415
vn -0.437095 0.000000 -0.899415
vn -0.391935 -0.919993 0.000000
vn -0.391935 -0.919993 0.000000
vn -0.391935 -0.919993 0.000000
vn -0.391935 -0.919993 0.000000
vn -0.437093 0.000000 0.899416
vn -0.437093 0.000000 0.899416
vn -0.437093 0.000000 0.899416
vn -0.437093 0.000000 0.899416
vn -0.391935 0.919993 0.000000
vn -0.391935 0.919993 0.000000
vn -0.391935 0.919993 0.000000
vn -0.391935 0.919993 0.000000
vn 0.000000 0.000000 1.000000
vn 0.000000 0.000000 1.000000
vn 0.000000 0.000000 1.000000
vn 0.000000 0.000000 1.000000
vn 0.000000 1.000000 0.000000
vn 0.000000 1.000000 0.000000
vn 0.000000 1.000000 0.000000
vn 0.000000 1.000000 0.000000
vn 0.000000 0.000000 -1.000000
vn 0.000000 0.000000 -1.000000
vn 0.000000 0.000000 -1.000000
vn 0.000000 0.000000 -1.000000
vn 0.000000 -1.000000 0.000000
vn 0.000000 -1.000000 0.000000
vn 0.000000 -1.000000 0.000000
vn 0.000000 -1.000000 0.000000
vn 0.437095 0.000000 -0.899415
vn 0.437095 0.000000 -0.899415
vn 0.437095 0.000000 -0.899415
vn 0.437095 0.000000 -0.899415
vn 0.391935 -0.919993 0.000000
vn 0.391935 -0.919993 0.000000
vn 0.391935 -0.919993 0.000000
vn 0.391935 -0.919993 0.000000
vn 0.437093 0.000000 0.899416
vn 0.437093 0.000000 0.899416
vn 0.437093 0.000000 0.899416
vn 0.437093 0.000000 0.899416
vn 0.391935 0.919993 0.000000
vn 0.391935 0.919993 0.000000
vn 0.391935 0.919993 0.000000
vn 0.391935 0.919993 0.000000
vn 0.000000 -1.000000 0.000000
vn 0.000000 -1.000000 0.000000
vn 0.000000 -1.000000 0.000000
vn 0.000000 -1.000000 0.000000
vn 0.000000 0.000000 1.000000
vn 0.000000 0.000000 1.000000
vn 0.000000 0.000000 1.000000
vn 0.000000 0.000000 1.000000
vn 0.000000 1.000000 0.000000
vn 0.000000 1.000000 0.000000
vn 0.000000 1.000000 0.000000
vn 0.000000 1.000000 0.000000
vn 0.000000 0.000000 -1.000000
vn 0.000000 0.000000 -1.000000
vn 0.000000 0.000000 -1.000000
vn 0.000000 0.000000 -1.000000
s off
g Tubo1:tubo_grande_lowtubi_semplicigroup
usemtl initialShadingGroup
f 1/1/1 5/2/2 6/3/3 2/4/4
f 2/4/5 6/3/6 7/5/7 3/6/8
f 3/6/9 7/5/10 8/7/11 4/8/12
f 4/8/13 8/7/14 5/9/15 1/10/16
f 1/11/17 2/12/18 10/13/19 9/14/20
f 2/15/21 3/16/22 11/17/23 10/13/24
f 3/18/25 4/19/26 12/20/27 11/17/28
f 4/21/29 1/22/30 9/14/31 12/23/32
f 13/24/33 14/25/34 6/3/35 5/2/36
f 14/25/37 15/26/38 7/5/39 6/3/40
f 15/26/41 16/27/42 8/7/43 7/5/44
f 16/27/45 13/28/46 5/9/47 8/7/48
f 13/29/49 17/30/50 18/31/51 14/32/52
f 14/33/53 18/31/54 19/34/55 15/35/56
f 15/36/57 19/34/58 20/37/59 16/38/60
f 16/39/61 20/40/62 17/30/63 13/41/64
f 10/13/65 11/17/66 19/34/67 18/31/68
f 11/17/69 12/20/70 20/37/71 19/34/72
f 12/23/73 9/14/74 17/30/75 20/40/76
f 9/14/77 10/13/78 18/31/79 17/30/80
