# This file uses centimeters as units for non-parametric coordinates.

mtllib Moneta.mtl
g default
v 0.440740 0.143667 0.322224
v 0.440740 0.307847 0.322224
v -0.440741 0.143667 0.322224
v -0.440740 0.307847 0.322224
v -0.440741 0.143667 -0.322223
v -0.440740 0.307847 -0.322223
v 0.440740 0.143667 -0.322223
v 0.440740 0.307847 -0.322223
v -0.352593 0.143667 0.322224
v -0.352593 0.143667 -0.322223
v -0.352592 0.307847 -0.322223
v -0.352592 0.307847 0.322224
v 0.361408 0.143667 0.322224
v 0.361408 0.143667 -0.322223
v 0.361408 0.307847 -0.322223
v 0.361408 0.307847 0.322224
v -0.352593 0.143667 -0.417544
v -0.352592 0.307847 -0.417544
v 0.361408 0.307847 -0.417544
v 0.361408 0.143667 -0.417544
v 0.361408 0.307847 0.417544
v 0.361408 0.143667 0.417544
v -0.352592 0.307847 0.417544
v -0.352593 0.143667 0.417544
v 0.390741 0.307847 -0.272223
v 0.390741 0.307847 0.272223
v 0.311408 0.307847 -0.272223
v 0.311408 0.307847 0.272223
v -0.302592 0.307847 -0.272223
v -0.302592 0.307847 0.272223
v -0.390740 0.307847 -0.272223
v -0.390740 0.307847 0.272223
v 0.311408 0.307847 -0.367545
v -0.302592 0.307847 -0.367545
v -0.302592 0.307847 0.367544
v 0.311408 0.307847 0.367544
v 0.390741 0.143667 -0.272223
v 0.390741 0.143667 0.272223
v 0.311408 0.143667 0.272223
v 0.311408 0.143667 -0.272223
v -0.302593 0.143667 0.272223
v -0.302593 0.143667 -0.272223
v -0.390741 0.143667 0.272223
v -0.390741 0.143667 -0.272223
v -0.302593 0.143667 -0.367545
v 0.311408 0.143667 -0.367545
v 0.311408 0.143667 0.367544
v -0.302593 0.143667 0.367544
v 0.390741 0.307847 -0.272223
v 0.390741 0.307847 0.272223
v 0.311408 0.307847 -0.272223
v 0.311408 0.307847 0.272223
v -0.302592 0.307847 -0.272223
v -0.302592 0.307847 0.272223
v -0.390740 0.307847 -0.272223
v -0.390740 0.307847 0.272223
v 0.311408 0.307847 -0.367545
v -0.302592 0.307847 -0.367545
v -0.302592 0.307847 0.367544
v 0.311408 0.307847 0.367544
v 0.390741 0.143667 -0.272223
v 0.390741 0.143667 0.272223
v 0.311408 0.143667 0.272223
v 0.311408 0.143667 -0.272223
v -0.302593 0.143667 0.272223
v -0.302593 0.143667 -0.272223
v -0.390741 0.143667 0.272223
v -0.390741 0.143667 -0.272223
v -0.302593 0.143667 -0.367545
v 0.311408 0.143667 -0.367545
v 0.311408 0.143667 0.367544
v -0.302593 0.143667 0.367544
v 0.390741 0.266777 -0.272223
v 0.390741 0.266777 0.272223
v 0.311408 0.266777 -0.272223
v 0.311408 0.266777 0.272223
v -0.302592 0.266777 -0.272223
v -0.302592 0.266777 0.272223
v -0.390740 0.266777 -0.272223
v -0.390740 0.266777 0.272223
v 0.311408 0.266777 -0.367545
v -0.302592 0.266777 -0.367545
v -0.302592 0.266777 0.367544
v 0.311408 0.266777 0.367544
v 0.390741 0.184737 -0.272223
v 0.390741 0.184737 0.272223
v 0.311408 0.184737 0.272223
v 0.311408 0.184737 -0.272223
v -0.302592 0.184737 0.272223
v -0.302592 0.184737 -0.272223
v -0.390740 0.184737 0.272223
v -0.390740 0.184737 -0.272223
v -0.302592 0.184737 -0.367545
v 0.311408 0.184737 -0.367545
v 0.311408 0.184737 0.367544
v -0.302592 0.184737 0.367544
vt 0.052480 0.609016
vt 0.067599 0.526018
vt 0.107705 0.533323
vt 0.092586 0.616321
vt 0.246406 0.477979
vt 0.327759 0.500316
vt 0.240079 0.819646
vt 0.158726 0.797308
vt 0.264972 0.414588
vt 0.280091 0.331590
vt 0.320196 0.338896
vt 0.305077 0.421894
vt 0.151344 0.477480
vt 0.232697 0.499818
vt 0.145017 0.819147
vt 0.063664 0.796809
vt 0.483055 0.731241
vt 0.484608 0.451483
vt 0.525373 0.451709
vt 0.523820 0.731467
vt 0.483055 0.350313
vt 0.487107 0.070580
vt 0.527868 0.071170
vt 0.523817 0.350904
vt 0.839287 0.355473
vt 0.843339 0.075740
vt 0.888629 0.076396
vt 0.884577 0.356129
vt 0.164318 0.380117
vt 0.180792 0.297377
vt 0.225215 0.306222
vt 0.208741 0.388962
vt 0.839319 0.733219
vt 0.840872 0.453460
vt 0.886166 0.453712
vt 0.884613 0.733470
vt 0.214645 0.397467
vt 0.231119 0.314727
vt 0.275542 0.323572
vt 0.259068 0.406312
vt 0.052480 0.245463
vt 0.079976 0.165706
vt 0.426832 0.285283
vt 0.399336 0.365040
vt 0.074848 0.162010
vt 0.102344 0.082253
vt 0.449199 0.201829
vt 0.421703 0.281587
vt 0.309707 0.132091
vt 0.325606 0.049239
vt 0.373709 0.058470
vt 0.357810 0.141322
vt 0.525645 0.402729
vt 0.841143 0.404480
vt 0.317790 0.058176
vt 0.301892 0.141029
vt 0.253788 0.131798
vt 0.269687 0.048946
vt 0.838578 0.404449
vt 0.523107 0.399880
vt 0.108399 0.361981
vt 0.124298 0.279128
vt 0.172401 0.288359
vt 0.156502 0.371211
vt 0.839047 0.782199
vt 0.523548 0.780448
vt 0.116482 0.269081
vt 0.100583 0.351933
vt 0.052481 0.342703
vt 0.068379 0.259851
vt 0.528578 0.022195
vt 0.844048 0.026764
vt 0.024521 0.831250
vt 0.026258 0.500106
vt 0.051816 0.525933
vt 0.050348 0.805692
vt 0.067023 0.500320
vt 0.092581 0.526147
vt 0.065286 0.831464
vt 0.091113 0.805906
vt 0.433907 0.502245
vt 0.479201 0.502483
vt 0.453374 0.528040
vt 0.408080 0.527802
vt 0.477463 0.833626
vt 0.451906 0.807799
vt 0.432169 0.833388
vt 0.406612 0.807561
vt 0.067280 0.451340
vt 0.092838 0.477167
vt 0.434164 0.453265
vt 0.408337 0.478822
vt 0.431912 0.882368
vt 0.406355 0.856542
vt 0.065029 0.880444
vt 0.090856 0.854886
vt 0.024521 0.402105
vt 0.026258 0.070961
vt 0.051816 0.096788
vt 0.050348 0.376547
vt 0.067023 0.071175
vt 0.092581 0.097002
vt 0.065286 0.402318
vt 0.091113 0.376761
vt 0.433907 0.073100
vt 0.479201 0.073338
vt 0.453374 0.098895
vt 0.408080 0.098658
vt 0.477463 0.404481
vt 0.451906 0.378654
vt 0.432169 0.404243
vt 0.406612 0.378416
vt 0.431912 0.453224
vt 0.406355 0.427397
vt 0.065029 0.451299
vt 0.090856 0.425741
vt 0.067280 0.022195
vt 0.092838 0.048022
vt 0.434164 0.024120
vt 0.408337 0.049677
vt 0.024521 0.022195
vt 0.024521 0.022195
vt 0.024521 0.022195
vt 0.024521 0.022195
vt 0.024521 0.022195
vt 0.024521 0.022195
vt 0.024521 0.022195
vt 0.024521 0.022195
vt 0.024521 0.022195
vt 0.024521 0.022195
vt 0.024521 0.022195
vt 0.024521 0.022195
vt 0.024521 0.022195
vt 0.024521 0.022195
vt 0.024521 0.022195
vt 0.024521 0.022195
vt 0.024521 0.022195
vt 0.024521 0.022195
vt 0.024521 0.022195
vt 0.024521 0.022195
vt 0.024521 0.022195
vt 0.024521 0.022195
vt 0.024521 0.022195
vt 0.024521 0.022195
vt 0.024521 0.022195
vt 0.024521 0.022195
vt 0.024521 0.022195
vt 0.024521 0.022195
vt 0.024521 0.022195
vt 0.024521 0.022195
vt 0.024521 0.022195
vt 0.024521 0.022195
vt 0.024521 0.022195
vt 0.024521 0.022195
vt 0.024521 0.022195
vt 0.024521 0.022195
vt 0.024521 0.022195
vt 0.024521 0.022195
vt 0.024521 0.022195
vt 0.024521 0.022195
vt 0.024521 0.022195
vt 0.024521 0.022195
vt 0.024521 0.022195
vt 0.024521 0.022195
vt 0.024521 0.022195
vt 0.024521 0.022195
vt 0.024521 0.022195
vt 0.024521 0.022195
vt 0.024521 0.022195
vt 0.024521 0.022195
vt 0.024521 0.022195
vt 0.024521 0.022195
vt 0.024521 0.022195
vt 0.024521 0.022195
vt 0.024521 0.022195
vt 0.024521 0.022195
vt 0.336284 0.548338
vt 0.365964 0.826522
vt 0.344979 0.828761
vt 0.315299 0.550577
vt 0.471872 0.406692
vt 0.509821 0.391803
vt 0.517529 0.411449
vt 0.479579 0.426338
vt 0.354442 0.402453
vt 0.392392 0.387565
vt 0.400099 0.407211
vt 0.362150 0.422099
vt 0.315299 0.368175
vt 0.357409 0.351490
vt 0.365183 0.371110
vt 0.323073 0.387795
vt 0.945799 0.022189
vt 0.975479 0.300373
vt 0.954494 0.302612
vt 0.924814 0.024428
vt 0.119583 0.397861
vt 0.161693 0.381176
vt 0.169467 0.400796
vt 0.127357 0.417480
vt 0.438320 0.037355
vt 0.484891 0.022181
vt 0.491430 0.042246
vt 0.444859 0.057421
vt 0.900979 0.353992
vt 0.944692 0.666453
vt 0.923792 0.669377
vt 0.880079 0.356916
vt 0.471872 0.050441
vt 0.518443 0.035266
vt 0.524981 0.055331
vt 0.478410 0.070506
vt 0.158726 0.063792
vt 0.205297 0.048617
vt 0.211835 0.068683
vt 0.165264 0.083857
vt 0.380934 0.478678
vt 0.424647 0.791138
vt 0.403747 0.794062
vt 0.360034 0.481602
vt 0.365626 0.113859
vt 0.412197 0.098684
vt 0.418735 0.118750
vt 0.372164 0.133925
vt 0.915351 0.864106
vt 0.885671 0.585922
vt 0.906656 0.583683
vt 0.936336 0.861867
vt 0.215567 0.408563
vt 0.177617 0.423451
vt 0.169910 0.403805
vt 0.207859 0.388917
vt 0.394507 0.150484
vt 0.356558 0.165372
vt 0.348850 0.145726
vt 0.386800 0.130838
vt 0.141507 0.386958
vt 0.099397 0.403643
vt 0.091624 0.384023
vt 0.133734 0.367338
vt 0.943310 0.617839
vt 0.913630 0.339655
vt 0.934615 0.337416
vt 0.964295 0.615600
vt 0.398734 0.382732
vt 0.356624 0.399417
vt 0.348850 0.379797
vt 0.390960 0.363112
vt 0.155917 0.068389
vt 0.109346 0.083564
vt 0.102807 0.063499
vt 0.149379 0.048324
vt 0.375787 0.793915
vt 0.332075 0.481455
vt 0.352975 0.478531
vt 0.396688 0.790992
vt 0.256571 0.078124
vt 0.209999 0.093299
vt 0.203461 0.073233
vt 0.250032 0.058059
vt 0.446694 0.157675
vt 0.400123 0.172850
vt 0.393585 0.152785
vt 0.440156 0.137610
vt 0.929384 0.337571
vt 0.885671 0.025110
vt 0.906571 0.022187
vt 0.950284 0.334647
vt 0.446695 0.133658
vt 0.400123 0.148832
vt 0.393585 0.128767
vt 0.440156 0.113592
vt 0.024521 0.022195
vt 0.024521 0.022195
vt 0.024521 0.022195
vt 0.024521 0.022195
vt 0.024521 0.022195
vt 0.024521 0.022195
vt 0.024521 0.022195
vt 0.024521 0.022195
vt 0.024521 0.022195
vt 0.024521 0.022195
vt 0.024521 0.022195
vt 0.024521 0.022195
vn 0.000000 0.000000 1.000000
vn 0.000000 0.000000 1.000000
vn 0.000000 0.000000 1.000000
vn 0.000000 0.000000 1.000000
vn -1.000000 0.000000 0.000000
vn -1.000000 0.000000 0.000000
vn -1.000000 0.000000 0.000000
vn -1.000000 0.000000 0.000000
vn 0.000000 0.000000 -1.000000
vn 0.000000 0.000000 -1.000000
vn 0.000000 0.000000 -1.000000
vn 0.000000 0.000000 -1.000000
vn 1.000000 0.000000 0.000000
vn 1.000000 0.000000 0.000000
vn 1.000000 0.000000 0.000000
vn 1.000000 0.000000 0.000000
vn 0.000000 1.000000 0.000000
vn 0.000000 1.000000 0.000000
vn 0.000000 1.000000 0.000000
vn 0.000000 1.000000 0.000000
vn 0.000000 -1.000000 0.000000
vn 0.000000 -1.000000 0.000000
vn 0.000000 -1.000000 0.000000
vn 0.000000 -1.000000 0.000000
vn 0.000000 -1.000000 0.000000
vn 0.000000 -1.000000 0.000000
vn 0.000000 -1.000000 0.000000
vn 0.000000 -1.000000 0.000000
vn 0.000000 0.000000 -1.000000
vn 0.000000 0.000000 -1.000000
vn 0.000000 0.000000 -1.000000
vn 0.000000 0.000000 -1.000000
vn 0.000000 1.000000 0.000000
vn 0.000000 1.000000 0.000000
vn 0.000000 1.000000 0.000000
vn 0.000000 1.000000 0.000000
vn 0.000000 0.000000 1.000000
vn 0.000000 0.000000 1.000000
vn 0.000000 0.000000 1.000000
vn 0.000000 0.000000 1.000000
vn 0.000000 -1.000000 0.000000
vn 0.000000 -1.000000 0.000000
vn 0.000000 -1.000000 0.000000
vn 0.000000 -1.000000 0.000000
vn 0.000000 0.000000 -1.000000
vn 0.000000 0.000000 -1.000000
vn 0.000000 0.000000 -1.000000
vn 0.000000 0.000000 -1.000000
vn 0.000000 1.000000 0.000000
vn 0.000000 1.000000 0.000000
vn 0.000000 1.000000 0.000000
vn 0.000000 1.000000 0.000000
vn 0.000000 0.000000 1.000000
vn 0.000000 0.000000 1.000000
vn 0.000000 0.000000 1.000000
vn 0.000000 0.000000 1.000000
vn -1.000000 0.000000 0.000000
vn -1.000000 0.000000 0.000000
vn -1.000000 0.000000 0.000000
vn -1.000000 0.000000 0.000000
vn 0.000000 1.000000 0.000000
vn 0.000000 1.000000 0.000000
vn 0.000000 1.000000 0.000000
vn 0.000000 1.000000 0.000000
vn 1.000000 0.000000 0.000000
vn 1.000000 0.000000 0.000000
vn 1.000000 0.000000 0.000000
vn 1.000000 0.000000 0.000000
vn 0.000000 -1.000000 0.000000
vn 0.000000 -1.000000 0.000000
vn 0.000000 -1.000000 0.000000
vn 0.000000 -1.000000 0.000000
vn 1.000000 0.000000 0.000000
vn 1.000000 0.000000 0.000000
vn 1.000000 0.000000 0.000000
vn 1.000000 0.000000 0.000000
vn 0.000000 1.000000 0.000000
vn 0.000000 1.000000 0.000000
vn 0.000000 1.000000 0.000000
vn 0.000000 1.000000 0.000000
vn -1.000000 0.000000 0.000000
vn -1.000000 0.000000 0.000000
vn -1.000000 0.000000 0.000000
vn -1.000000 0.000000 0.000000
vn 0.000000 -1.000000 0.000000
vn 0.000000 -1.000000 0.000000
vn 0.000000 -1.000000 0.000000
vn 0.000000 -1.000000 0.000000
vn 0.000000 1.000000 0.000000
vn 0.000000 1.000000 0.000000
vn 0.000000 1.000000 0.000000
vn 0.000000 1.000000 0.000000
vn 0.000000 1.000000 0.000000
vn 0.000000 1.000000 0.000000
vn 0.000000 1.000000 0.000000
vn 0.000000 1.000000 0.000000
vn 0.000000 1.000000 0.000000
vn 0.000000 1.000000 0.000000
vn 0.000000 1.000000 0.000000
vn 0.000000 1.000000 0.000000
vn 0.000000 1.000000 0.000000
vn 0.000000 1.000000 0.000000
vn 0.000000 1.000000 0.000000
vn 0.000000 1.000000 0.000000
vn 0.000000 1.000000 0.000000
vn 0.000000 1.000000 0.000000
vn 0.000000 1.000000 0.000000
vn 0.000000 1.000000 0.000000
vn 0.000000 1.000000 0.000000
vn 0.000000 1.000000 0.000000
vn 0.000000 1.000000 0.000000
vn 0.000000 1.000000 0.000000
vn 0.000000 1.000000 0.000000
vn 0.000000 1.000000 0.000000
vn 0.000000 1.000000 0.000000
vn 0.000000 1.000000 0.000000
vn 0.000000 1.000000 0.000000
vn 0.000000 1.000000 0.000000
vn 0.000000 1.000000 0.000000
vn 0.000000 1.000000 0.000000
vn 0.000000 1.000000 0.000000
vn 0.000000 1.000000 0.000000
vn 0.000000 1.000000 0.000000
vn 0.000000 1.000000 0.000000
vn 0.000000 1.000000 0.000000
vn 0.000000 1.000000 0.000000
vn 0.000000 1.000000 0.000000
vn 0.000000 1.000000 0.000000
vn 0.000000 1.000000 0.000000
vn 0.000000 1.000000 0.000000
vn 0.000000 1.000000 0.000000
vn 0.000000 1.000000 0.000000
vn 0.000000 1.000000 0.000000
vn 0.000000 1.000000 0.000000
vn 0.000000 1.000000 0.000000
vn 0.000000 1.000000 0.000000
vn 0.000000 -1.000000 0.000000
vn 0.000000 -1.000000 0.000000
vn 0.000000 -1.000000 0.000000
vn 0.000000 -1.000000 0.000000
vn 0.000000 -1.000000 0.000000
vn 0.000000 -1.000000 0.000000
vn 0.000000 -1.000000 0.000000
vn 0.000000 -1.000000 0.000000
vn 0.000000 -1.000000 0.000000
vn 0.000000 -1.000000 0.000000
vn 0.000000 -1.000000 0.000000
vn 0.000000 -1.000000 0.000000
vn 0.000000 -1.000000 0.000000
vn 0.000000 -1.000000 0.000000
vn 0.000000 -1.000000 0.000000
vn 0.000000 -1.000000 0.000000
vn 0.000000 -1.000000 0.000000
vn 0.000000 -1.000000 0.000000
vn 0.000000 -1.000000 0.000000
vn 0.000000 -1.000000 0.000000
vn 0.000000 -1.000000 0.000000
vn 0.000000 -1.000000 0.000000
vn 0.000000 -1.000000 0.000000
vn 0.000000 -1.000000 0.000000
vn 0.000000 -1.000000 0.000000
vn 0.000000 -1.000000 0.000000
vn 0.000000 -1.000000 0.000000
vn 0.000000 -1.000000 0.000000
vn 0.000000 -1.000000 0.000000
vn 0.000000 -1.000000 0.000000
vn 0.000000 -1.000000 0.000000
vn 0.000000 -1.000000 0.000000
vn 0.000000 -1.000000 0.000000
vn 0.000000 -1.000000 0.000000
vn 0.000000 -1.000000 0.000000
vn 0.000000 -1.000000 0.000000
vn 0.000000 -1.000000 0.000000
vn 0.000000 -1.000000 0.000000
vn 0.000000 -1.000000 0.000000
vn 0.000000 -1.000000 0.000000
vn 0.000000 -1.000000 0.000000
vn 0.000000 -1.000000 0.000000
vn 0.000000 -1.000000 0.000000
vn 0.000000 -1.000000 0.000000
vn 0.000000 -1.000000 0.000000
vn 0.000000 -1.000000 0.000000
vn 0.000000 -1.000000 0.000000
vn 0.000000 -1.000000 0.000000
vn 0.000000 0.000000 0.000000
vn 0.000000 0.000000 0.000000
vn 0.000000 0.000000 0.000000
vn 0.000000 0.000000 0.000000
vn 0.000000 0.000000 0.000000
vn 0.000000 0.000000 0.000000
vn 0.000000 0.000000 0.000000
vn 0.000000 0.000000 0.000000
vn 0.000000 0.000000 0.000000
vn 0.000000 0.000000 0.000000
vn 0.000000 0.000000 0.000000
vn 0.000000 0.000000 0.000000
vn 0.000000 0.000000 0.000000
vn 0.000000 0.000000 0.000000
vn 0.000000 0.000000 0.000000
vn 0.000000 0.000000 0.000000
vn 0.000000 0.000000 0.000000
vn 0.000000 0.000000 0.000000
vn 0.000000 0.000000 0.000000
vn 0.000000 0.000000 0.000000
vn 0.000000 0.000000 0.000000
vn 0.000000 0.000000 0.000000
vn 0.000000 0.000000 0.000000
vn 0.000000 0.000000 0.000000
vn 0.000000 0.000000 0.000000
vn 0.000000 0.000000 0.000000
vn 0.000000 0.000000 0.000000
vn 0.000000 0.000000 0.000000
vn 0.000000 0.000000 0.000000
vn 0.000000 0.000000 0.000000
vn 0.000000 0.000000 0.000000
vn 0.000000 0.000000 0.000000
vn 0.000000 0.000000 0.000000
vn 0.000000 0.000000 0.000000
vn 0.000000 0.000000 0.000000
vn 0.000000 0.000000 0.000000
vn 0.000000 0.000000 0.000000
vn 0.000000 0.000000 0.000000
vn 0.000000 0.000000 0.000000
vn 0.000000 0.000000 0.000000
vn 0.000000 0.000000 0.000000
vn 0.000000 0.000000 0.000000
vn 0.000000 0.000000 0.000000
vn 0.000000 0.000000 0.000000
vn 0.000000 0.000000 0.000000
vn 0.000000 0.000000 0.000000
vn 0.000000 0.000000 0.000000
vn 0.000000 0.000000 0.000000
vn 0.000000 0.000000 0.000000
vn 0.000000 0.000000 0.000000
vn 0.000000 0.000000 0.000000
vn 0.000000 0.000000 0.000000
vn 0.000000 0.000000 0.000000
vn 0.000000 0.000000 0.000000
vn 0.000000 0.000000 0.000000
vn 0.000000 0.000000 0.000000
vn 0.000000 0.000000 0.000000
vn 0.000000 0.000000 0.000000
vn 0.000000 0.000000 0.000000
vn 0.000000 0.000000 0.000000
vn 0.000000 0.000000 0.000000
vn 0.000000 0.000000 0.000000
vn 0.000000 0.000000 0.000000
vn 0.000000 0.000000 0.000000
vn 0.000000 0.000000 0.000000
vn 0.000000 0.000000 0.000000
vn 0.000000 0.000000 0.000000
vn 0.000000 0.000000 0.000000
vn 0.000000 0.000000 0.000000
vn 0.000000 0.000000 0.000000
vn 0.000000 0.000000 0.000000
vn 0.000000 0.000000 0.000000
vn 0.000000 0.000000 0.000000
vn 0.000000 0.000000 0.000000
vn 0.000000 0.000000 0.000000
vn 0.000000 0.000000 0.000000
vn 0.000000 0.000000 0.000000
vn 0.000000 0.000000 0.000000
vn 0.000000 0.000000 0.000000
vn 0.000000 0.000000 0.000000
vn 0.000000 0.000000 0.000000
vn 0.000000 0.000000 0.000000
vn 0.000000 0.000000 0.000000
vn 0.000000 0.000000 0.000000
vn 0.000000 0.000000 0.000000
vn 0.000000 0.000000 0.000000
vn 0.000000 0.000000 0.000000
vn 0.000000 0.000000 0.000000
vn 0.000000 0.000000 0.000000
vn 0.000000 0.000000 0.000000
vn 0.000000 0.000000 0.000000
vn 0.000000 0.000000 0.000000
vn 0.000000 0.000000 0.000000
vn 0.000000 0.000000 0.000000
vn 0.000000 0.000000 0.000000
vn 0.000000 0.000000 0.000000
vn -1.000000 0.000000 0.000000
vn -1.000000 0.000000 0.000000
vn -1.000000 0.000000 0.000000
vn -1.000000 0.000000 0.000000
vn 0.000000 0.000000 1.000000
vn 0.000000 0.000000 1.000000
vn 0.000000 0.000000 1.000000
vn 0.000000 0.000000 1.000000
vn 0.000000 0.000000 -1.000000
vn 0.000000 0.000000 -1.000000
vn 0.000000 0.000000 -1.000000
vn 0.000000 0.000000 -1.000000
vn 0.000000 0.000000 1.000000
vn 0.000000 0.000000 1.000000
vn 0.000000 0.000000 1.000000
vn 0.000000 0.000000 1.000000
vn 1.000000 0.000000 0.000000
vn 1.000000 0.000000 0.000000
vn 1.000000 0.000000 0.000000
vn 1.000000 0.000000 0.000000
vn 0.000000 0.000000 -1.000000
vn 0.000000 0.000000 -1.000000
vn 0.000000 0.000000 -1.000000
vn 0.000000 0.000000 -1.000000
vn -1.000000 0.000000 0.000000
vn -1.000000 0.000000 0.000000
vn -1.000000 0.000000 0.000000
vn -1.000000 0.000000 0.000000
vn 0.000000 0.000000 1.000000
vn 0.000000 0.000000 1.000000
vn 0.000000 0.000000 1.000000
vn 0.000000 0.000000 1.000000
vn 1.000000 0.000000 0.000000
vn 1.000000 0.000000 0.000000
vn 1.000000 0.000000 0.000000
vn 1.000000 0.000000 0.000000
vn 1.000000 0.000000 0.000000
vn 1.000000 0.000000 0.000000
vn 1.000000 0.000000 0.000000
vn 1.000000 0.000000 0.000000
vn 0.000000 0.000000 -1.000000
vn 0.000000 0.000000 -1.000000
vn 0.000000 0.000000 -1.000000
vn 0.000000 0.000000 -1.000000
vn -1.000000 0.000000 0.000000
vn -1.000000 0.000000 0.000000
vn -1.000000 0.000000 0.000000
vn -1.000000 0.000000 0.000000
vn -1.000000 0.000000 0.000000
vn -1.000000 0.000000 0.000000
vn -1.000000 0.000000 0.000000
vn -1.000000 0.000000 0.000000
vn 0.000000 0.000000 -1.000000
vn 0.000000 0.000000 -1.000000
vn 0.000000 0.000000 -1.000000
vn 0.000000 0.000000 -1.000000
vn 0.000000 0.000000 1.000000
vn 0.000000 0.000000 1.000000
vn 0.000000 0.000000 1.000000
vn 0.000000 0.000000 1.000000
vn 0.000000 0.000000 -1.000000
vn 0.000000 0.000000 -1.000000
vn 0.000000 0.000000 -1.000000
vn 0.000000 0.000000 -1.000000
vn 1.000000 0.000000 0.000000
vn 1.000000 0.000000 0.000000
vn 1.000000 0.000000 0.000000
vn 1.000000 0.000000 0.000000
vn 0.000000 0.000000 1.000000
vn 0.000000 0.000000 1.000000
vn 0.000000 0.000000 1.000000
vn 0.000000 0.000000 1.000000
vn 1.000000 0.000000 0.000000
vn 1.000000 0.000000 0.000000
vn 1.000000 0.000000 0.000000
vn 1.000000 0.000000 0.000000
vn 0.000000 0.000000 1.000000
vn 0.000000 0.000000 1.000000
vn 0.000000 0.000000 1.000000
vn 0.000000 0.000000 1.000000
vn -1.000000 0.000000 0.000000
vn -1.000000 0.000000 0.000000
vn -1.000000 0.000000 0.000000
vn -1.000000 0.000000 0.000000
vn -1.000000 0.000000 0.000000
vn -1.000000 0.000000 0.000000
vn -1.000000 0.000000 0.000000
vn -1.000000 0.000000 0.000000
vn 0.000000 0.000000 -1.000000
vn 0.000000 0.000000 -1.000000
vn 0.000000 0.000000 -1.000000
vn 0.000000 0.000000 -1.000000
vn 1.000000 0.000000 0.000000
vn 1.000000 0.000000 0.000000
vn 1.000000 0.000000 0.000000
vn 1.000000 0.000000 0.000000
s off
g assetMoneta:pCube21
usemtl assetMoneta:texturedFacets28
f 1/1/1 2/2/2 16/3/3 13/4/4
f 3/5/5 4/6/6 6/7/7 5/8/8
f 14/9/9 15/10/10 8/11/11 7/12/12
f 7/13/13 8/14/14 2/15/15 1/16/16
f 74/17/17 73/18/18 75/19/19 76/20/20
f 85/21/21 86/22/22 87/23/23 88/24/24
f 90/25/25 89/26/26 91/27/27 92/28/28
f 5/29/29 6/30/30 11/31/31 10/32/32
f 78/33/33 77/34/34 79/35/35 80/36/36
f 9/37/37 12/38/38 4/39/39 3/40/40
f 88/24/41 87/23/42 89/26/43 90/25/44
f 17/41/45 18/42/46 19/43/47 20/44/48
f 76/20/49 75/19/50 77/34/51 78/33/52
f 22/45/53 21/46/54 23/47/55 24/48/56
f 10/49/57 11/50/58 18/51/59 17/52/60
f 77/34/61 75/19/62 81/53/63 82/54/64
f 15/55/65 14/56/66 20/57/67 19/58/68
f 88/24/69 90/25/70 93/59/71 94/60/72
f 13/61/73 16/62/74 21/63/75 22/64/76
f 76/20/77 78/33/78 83/65/79 84/66/80
f 12/67/81 9/68/82 24/69/83 23/70/84
f 89/26/85 87/23/86 95/71/87 96/72/88
f 2/73/89 8/74/90 25/75/91 26/76/92
f 8/74/93 15/77/94 27/78/95 25/75/96
f 16/79/97 2/73/98 26/76/99 28/80/100
f 11/81/101 6/82/102 31/83/103 29/84/104
f 6/82/105 4/85/106 32/86/107 31/83/108
f 4/85/109 12/87/110 30/88/111 32/86/112
f 15/77/113 19/89/114 33/90/115 27/78/116
f 19/89/117 18/91/118 34/92/119 33/90/120
f 18/91/121 11/81/122 29/84/123 34/92/124
f 12/87/125 23/93/126 35/94/127 30/88/128
f 23/93/129 21/95/130 36/96/131 35/94/132
f 21/95/133 16/79/134 28/80/135 36/96/136
f 7/97/137 1/98/138 38/99/139 37/100/140
f 1/98/141 13/101/142 39/102/143 38/99/144
f 14/103/145 7/97/146 37/100/147 40/104/148
f 9/105/149 3/106/150 43/107/151 41/108/152
f 3/106/153 5/109/154 44/110/155 43/107/156
f 5/109/157 10/111/158 42/112/159 44/110/160
f 10/111/161 17/113/162 45/114/163 42/112/164
f 17/113/165 20/115/166 46/116/167 45/114/168
f 20/115/169 14/103/170 40/104/171 46/116/172
f 13/101/173 22/117/174 47/118/175 39/102/176
f 22/117/177 24/119/178 48/120/179 47/118/180
f 24/119/181 9/105/182 41/108/183 48/120/184
f 26/121/185 25/122/186 49/123/187 50/124/188
f 25/122/189 27/125/190 51/126/191 49/123/192
f 28/127/193 26/121/194 50/124/195 52/128/196
f 29/129/197 31/130/198 55/131/199 53/132/200
f 31/130/201 32/133/202 56/134/203 55/131/204
f 32/135/205 30/273/206 54/274/207 56/136/208
f 27/137/209 33/138/210 57/139/211 51/140/212
f 33/138/213 34/141/214 58/142/215 57/139/216
f 34/141/217 29/143/218 53/144/219 58/142/220
f 30/145/221 35/146/222 59/147/223 54/148/224
f 35/146/225 36/149/226 60/150/227 59/147/228
f 36/149/229 28/151/230 52/152/231 60/150/232
f 37/153/233 38/154/234 62/155/235 61/156/236
f 38/154/237 39/157/238 63/158/239 62/155/240
f 40/275/241 37/159/242 61/160/243 64/276/244
f 41/161/245 43/162/246 67/163/247 65/164/248
f 43/162/249 44/165/250 68/166/251 67/163/252
f 44/165/253 42/167/254 66/168/255 68/166/256
f 42/277/257 45/169/258 69/170/259 66/278/260
f 45/169/261 46/171/262 70/172/263 69/170/264
f 46/171/265 40/279/266 64/280/267 70/172/268
f 39/281/269 47/173/270 71/174/271 63/282/272
f 47/173/273 48/175/274 72/176/275 71/174/276
f 48/175/277 41/283/278 65/284/279 72/176/280
f 50/177/281 49/178/282 73/179/283 74/180/284
f 49/181/285 51/182/286 75/183/287 73/184/288
f 52/185/289 50/186/290 74/187/291 76/188/292
f 53/189/293 55/190/294 79/191/295 77/192/296
f 55/193/297 56/194/298 80/195/299 79/196/300
f 56/197/301 54/198/302 78/199/303 80/200/304
f 51/201/305 57/202/306 81/203/307 75/204/308
f 57/205/309 58/206/310 82/207/311 81/208/312
f 58/209/313 53/210/314 77/211/315 82/212/316
f 54/213/317 59/214/318 83/215/319 78/216/320
f 59/217/321 60/218/322 84/219/323 83/220/324
f 60/221/325 52/222/326 76/223/327 84/224/328
f 61/225/329 62/226/330 86/227/331 85/228/332
f 62/229/333 63/230/334 87/231/335 86/232/336
f 64/233/337 61/234/338 85/235/339 88/236/340
f 65/237/341 67/238/342 91/239/343 89/240/344
f 67/241/345 68/242/346 92/243/347 91/244/348
f 68/245/349 66/246/350 90/247/351 92/248/352
f 66/249/353 69/250/354 93/251/355 90/252/356
f 69/253/357 70/254/358 94/255/359 93/256/360
f 70/257/361 64/258/362 88/259/363 94/260/364
f 63/261/365 71/262/366 95/263/367 87/264/368
f 71/265/369 72/266/370 96/267/371 95/268/372
f 72/269/373 65/270/374 89/271/375 96/272/376
