# This file uses meters as units for non-parametric coordinates.

mtllib StradaVera.mtl
g default
v -1250.000000 -50.000000 -2421.898402
v 1250.000000 -50.000000 -2421.898402
v -1250.000000 50.000000 -2421.898402
v 1250.000000 50.000000 -2421.898402
v -1250.000000 50.000000 -2521.898402
v 1250.000000 50.000000 -2521.898402
v -1250.000000 -50.000000 -2521.898402
v 1250.000000 -50.000000 -2521.898402
v -1250.000000 50.000000 -2431.898402
v -1250.000000 -50.000000 -2431.898402
v 1250.000000 -50.000000 -2431.898402
v 1250.000000 50.000000 -2431.898402
v -1250.000000 -50.000000 -2512.898402
v -1250.000000 50.000000 -2512.898402
v 1250.000000 50.000000 -2512.898402
v 1250.000000 -50.000000 -2512.898402
vt 0.911927 0.096852
vt 0.909395 0.093557
vt 0.942349 0.068234
vt 0.944882 0.071529
vt 0.888884 0.066864
vt 0.921838 0.041541
vt 0.886605 0.063898
vt 0.919559 0.038575
vt 0.110100 0.765410
vt 0.084777 0.732456
vt 0.088073 0.729923
vt 0.113395 0.762878
vt 0.083407 0.785921
vt 0.058084 0.752967
vt 0.055118 0.755246
vt 0.080441 0.788200
vt 0.937250 0.129806
vt 0.939783 0.133102
vt 0.115928 0.766173
vt 0.960294 0.159795
vt 0.136439 0.792866
vt 0.962573 0.162760
vt 0.138718 0.795832
vt 0.085540 0.726628
vt 0.065029 0.699935
vt 0.062750 0.696969
vt 0.037427 0.664015
vt 0.861282 0.030944
vn 0.000000 0.000000 1.000000
vn 0.000000 0.000000 1.000000
vn 0.000000 0.000000 1.000000
vn 0.000000 0.000000 1.000000
vn 0.000000 1.000000 0.000000
vn 0.000000 1.000000 0.000000
vn 0.000000 1.000000 0.000000
vn 0.000000 1.000000 0.000000
vn 0.000000 0.000000 -1.000000
vn 0.000000 0.000000 -1.000000
vn 0.000000 0.000000 -1.000000
vn 0.000000 0.000000 -1.000000
vn 0.000000 -1.000000 0.000000
vn 0.000000 -1.000000 0.000000
vn 0.000000 -1.000000 0.000000
vn 0.000000 -1.000000 0.000000
vn 1.000000 0.000000 0.000000
vn 1.000000 0.000000 0.000000
vn 1.000000 0.000000 0.000000
vn 1.000000 0.000000 0.000000
vn -1.000000 0.000000 0.000000
vn -1.000000 0.000000 0.000000
vn -1.000000 0.000000 0.000000
vn -1.000000 0.000000 0.000000
vn -1.000000 0.000000 0.000000
vn -1.000000 0.000000 0.000000
vn -1.000000 0.000000 0.000000
vn -1.000000 0.000000 0.000000
vn 0.000000 -1.000000 0.000000
vn 0.000000 -1.000000 0.000000
vn 0.000000 -1.000000 0.000000
vn 0.000000 -1.000000 0.000000
vn 1.000000 0.000000 0.000000
vn 1.000000 0.000000 0.000000
vn 1.000000 0.000000 0.000000
vn 1.000000 0.000000 0.000000
vn 0.000000 1.000000 0.000000
vn 0.000000 1.000000 0.000000
vn 0.000000 1.000000 0.000000
vn 0.000000 1.000000 0.000000
s off
g pCube6
usemtl texturedFacets1
f 1/11/1 2/1/2 4/17/3 3/12/4
s 1
f 3/12/5 4/17/6 12/18/7 9/19/8
s off
f 5/27/9 6/28/10 8/7/11 7/26/12
s 2
f 10/24/13 11/2/14 2/1/15 1/11/16
s 3
f 2/1/17 11/2/18 12/3/19 4/4/20
s 4
f 9/9/21 10/10/22 1/11/23 3/12/24
f 7/15/25 13/14/26 14/13/27 5/16/28
s 2
f 7/26/29 8/7/30 16/5/31 13/25/32
s 3
f 15/6/33 16/5/34 8/7/35 6/8/36
s 1
f 14/21/37 15/20/38 6/22/39 5/23/40
s 4
f 14/13/27 13/14/26 10/10/22 9/9/21
s 1
f 9/19/8 12/18/7 15/20/38 14/21/37
s 3
f 12/3/19 11/2/18 16/5/34 15/6/33
s 2
f 13/25/32 16/5/31 11/2/14 10/24/13
