# This file uses meters as units for non-parametric coordinates.

mtllib piattaforma2.mtl
g default
v 34.588684 35.503059 -34.947941
v 45.777386 35.503059 -34.947941
v 34.588684 39.512520 -34.947941
v 45.777386 39.512520 -34.947941
v 34.588684 39.512520 -46.136642
v 45.777386 39.512520 -46.136642
v 34.588684 35.503059 -46.136642
v 45.777386 35.503059 -46.136642
vt 0.877346 0.611887
vt 0.877346 0.555944
vt 0.897394 0.555944
vt 0.897394 0.611887
vt 0.953859 0.111887
vt 0.953859 0.055944
vt 0.973907 0.055944
vt 0.973907 0.111887
vt 0.576396 0.652946
vt 0.576396 0.597002
vt 0.632340 0.597002
vt 0.632340 0.652946
vt 0.979364 0.111887
vt 0.979364 0.055943
vt 0.999411 0.055943
vt 0.999411 0.111887
vt 0.979364 0.335661
vt 0.979364 0.279718
vt 0.999411 0.279718
vt 0.999411 0.335661
vn 0.000000 0.000000 1.000000
vn 0.000000 0.000000 1.000000
vn 0.000000 0.000000 1.000000
vn 0.000000 0.000000 1.000000
vn 0.000000 1.000000 0.000000
vn 0.000000 1.000000 0.000000
vn 0.000000 1.000000 0.000000
vn 0.000000 1.000000 0.000000
vn 0.000000 0.000000 -1.000000
vn 0.000000 0.000000 -1.000000
vn 0.000000 0.000000 -1.000000
vn 0.000000 0.000000 -1.000000
vn 1.000000 0.000000 0.000000
vn 1.000000 0.000000 0.000000
vn 1.000000 0.000000 0.000000
vn 1.000000 0.000000 0.000000
vn -1.000000 0.000000 0.000000
vn -1.000000 0.000000 0.000000
vn -1.000000 0.000000 0.000000
vn -1.000000 0.000000 0.000000
s off
g _Piattaforma_1pCube7Bulloni1 group1
usemtl blinn1SG
f 1/13/1 2/14/2 4/15/3 3/16/4
f 3/9/5 4/10/6 6/11/7 5/12/8
f 5/17/9 6/18/10 8/19/11 7/20/12
f 2/1/13 8/2/14 6/3/15 4/4/16
f 7/5/17 1/6/18 3/7/19 5/8/20
g default
v -45.984715 35.503059 4.631720
v -34.796013 35.503059 4.631720
v -45.984715 39.512520 4.631720
v -34.796013 39.512520 4.631720
v -45.984715 39.512520 -6.556983
v -34.796013 39.512520 -6.556983
v -45.984715 35.503059 -6.556983
v -34.796013 35.503059 -6.556983
vt 0.897750 0.555944
vt 0.897750 0.500000
vt 0.917797 0.500000
vt 0.917797 0.555944
vt 0.877346 0.555944
vt 0.877346 0.500000
vt 0.897394 0.500000
vt 0.897394 0.555944
vt 0.632506 0.541059
vt 0.688449 0.541059
vt 0.688449 0.597002
vt 0.632506 0.597002
vt 0.958960 0.335661
vt 0.958960 0.279718
vt 0.979007 0.279718
vt 0.979007 0.335661
vt 0.902851 0.611887
vt 0.902851 0.555944
vt 0.922898 0.555944
vt 0.922898 0.611887
vn 0.000000 0.000000 1.000000
vn 0.000000 0.000000 1.000000
vn 0.000000 0.000000 1.000000
vn 0.000000 0.000000 1.000000
vn 0.000000 1.000000 0.000000
vn 0.000000 1.000000 0.000000
vn 0.000000 1.000000 0.000000
vn 0.000000 1.000000 0.000000
vn 0.000000 0.000000 -1.000000
vn 0.000000 0.000000 -1.000000
vn 0.000000 0.000000 -1.000000
vn 0.000000 0.000000 -1.000000
vn 1.000000 0.000000 0.000000
vn 1.000000 0.000000 0.000000
vn 1.000000 0.000000 0.000000
vn 1.000000 0.000000 0.000000
vn -1.000000 0.000000 0.000000
vn -1.000000 0.000000 0.000000
vn -1.000000 0.000000 0.000000
vn -1.000000 0.000000 0.000000
s off
g group1 _Piattaforma_1BullonipCube8
usemtl blinn1SG
f 9/33/21 10/34/22 12/35/23 11/36/24
f 11/29/25 12/30/26 14/31/27 13/32/28
f 13/37/29 14/38/30 16/39/31 15/40/32
f 10/21/33 16/22/34 14/23/35 12/24/36
f 15/25/37 9/26/38 11/27/39 13/28/40
g default
v -7.452030 -78.844635 6.931067
v 7.452030 -78.844635 6.931067
v -7.452030 29.367136 6.931067
v 7.452030 29.367136 6.931067
v -7.452030 29.367136 -6.931067
v 7.452030 29.367136 -6.931067
v -7.452030 -78.844635 -6.931067
v 7.452030 -78.844635 -6.931067
vt 0.658010 0.000000
vt 0.727321 0.000000
vt 0.727321 0.541059
vt 0.658010 0.541059
vt 0.729422 0.000000
vt 0.798732 0.000000
vt 0.798732 0.541059
vt 0.729422 0.541059
vt 0.504984 0.615579
vt 0.504984 0.541059
vt 0.574295 0.541059
vt 0.574295 0.615579
vt 0.504984 0.000000
vt 0.579505 0.000000
vt 0.579505 0.541059
vt 0.504984 0.541059
vt 0.581497 0.000000
vt 0.656017 0.000000
vt 0.656017 0.541059
vt 0.581497 0.541059
vn 0.000000 0.000000 1.000000
vn 0.000000 0.000000 1.000000
vn 0.000000 0.000000 1.000000
vn 0.000000 0.000000 1.000000
vn 0.000000 0.000000 -1.000000
vn 0.000000 0.000000 -1.000000
vn 0.000000 0.000000 -1.000000
vn 0.000000 0.000000 -1.000000
vn 0.000000 -1.000000 0.000000
vn 0.000000 -1.000000 0.000000
vn 0.000000 -1.000000 0.000000
vn 0.000000 -1.000000 0.000000
vn 1.000000 0.000000 0.000000
vn 1.000000 0.000000 0.000000
vn 1.000000 0.000000 0.000000
vn 1.000000 0.000000 0.000000
vn -1.000000 0.000000 0.000000
vn -1.000000 0.000000 0.000000
vn -1.000000 0.000000 0.000000
vn -1.000000 0.000000 0.000000
s off
g group1 _Piattaforma_1pCube10
usemtl blinn1SG
f 17/53/41 18/54/42 20/55/43 19/56/44
f 21/57/45 22/58/46 24/59/47 23/60/48
f 23/49/49 24/50/50 18/51/51 17/52/52
f 18/41/53 24/42/54 22/43/55 20/44/56
f 23/45/57 17/46/58 19/47/59 21/48/60
g default
v 34.588684 35.503059 4.631720
v 45.777386 35.503059 4.631720
v 34.588684 39.512520 4.631720
v 45.777386 39.512520 4.631720
v 34.588684 39.512520 -6.556983
v 45.777386 39.512520 -6.556983
v 34.588684 35.503059 -6.556983
v 45.777386 35.503059 -6.556983
vt 0.953859 0.447548
vt 0.953859 0.391605
vt 0.973907 0.391605
vt 0.973907 0.447548
vt 0.979364 0.447548
vt 0.979364 0.391605
vt 0.999411 0.391605
vt 0.999411 0.447548
vt 0.693716 0.541059
vt 0.749659 0.541059
vt 0.749659 0.597002
vt 0.693716 0.597002
vt 0.953859 0.055943
vt 0.953859 0.000000
vt 0.973907 0.000000
vt 0.973907 0.055943
vt 0.953859 0.279718
vt 0.953859 0.223774
vt 0.973907 0.223774
vt 0.973907 0.279718
vn 0.000000 0.000000 1.000000
vn 0.000000 0.000000 1.000000
vn 0.000000 0.000000 1.000000
vn 0.000000 0.000000 1.000000
vn 0.000000 1.000000 0.000000
vn 0.000000 1.000000 0.000000
vn 0.000000 1.000000 0.000000
vn 0.000000 1.000000 0.000000
vn 0.000000 0.000000 -1.000000
vn 0.000000 0.000000 -1.000000
vn 0.000000 0.000000 -1.000000
vn 0.000000 0.000000 -1.000000
vn 1.000000 0.000000 0.000000
vn 1.000000 0.000000 0.000000
vn 1.000000 0.000000 0.000000
vn 1.000000 0.000000 0.000000
vn -1.000000 0.000000 0.000000
vn -1.000000 0.000000 0.000000
vn -1.000000 0.000000 0.000000
vn -1.000000 0.000000 0.000000
s off
g group1 _Piattaforma_1Bulloni1pCube8
usemtl blinn1SG
f 25/73/61 26/74/62 28/75/63 27/76/64
f 27/69/65 28/70/66 30/71/67 29/72/68
f 29/77/69 30/78/70 32/79/71 31/80/72
f 26/61/73 32/62/74 30/63/75 28/64/76
f 31/65/77 25/66/78 27/67/79 29/68/80
g default
v 34.588684 35.503059 45.998711
v 45.777386 35.503059 45.998711
v 34.588684 39.512520 45.998711
v 45.777386 39.512520 45.998711
v 34.588684 39.512520 34.810009
v 45.777386 39.512520 34.810009
v 34.588684 35.503059 34.810009
v 45.777386 35.503059 34.810009
vt 0.749825 0.597002
vt 0.749825 0.541059
vt 0.769872 0.541059
vt 0.769872 0.597002
vt 0.953859 0.167831
vt 0.953859 0.111887
vt 0.973907 0.111887
vt 0.973907 0.167831
vt 0.744724 0.597002
vt 0.800668 0.597002
vt 0.800668 0.652946
vt 0.744724 0.652946
vt 0.974263 0.055943
vt 0.974263 0.000000
vt 0.994310 0.000000
vt 0.994310 0.055943
vt 0.974263 0.223774
vt 0.974263 0.167831
vt 0.994310 0.167831
vt 0.994310 0.223774
vn 0.000000 0.000000 1.000000
vn 0.000000 0.000000 1.000000
vn 0.000000 0.000000 1.000000
vn 0.000000 0.000000 1.000000
vn 0.000000 1.000000 0.000000
vn 0.000000 1.000000 0.000000
vn 0.000000 1.000000 0.000000
vn 0.000000 1.000000 0.000000
vn 0.000000 0.000000 -1.000000
vn 0.000000 0.000000 -1.000000
vn 0.000000 0.000000 -1.000000
vn 0.000000 0.000000 -1.000000
vn 1.000000 0.000000 0.000000
vn 1.000000 0.000000 0.000000
vn 1.000000 0.000000 0.000000
vn 1.000000 0.000000 0.000000
vn -1.000000 0.000000 0.000000
vn -1.000000 0.000000 0.000000
vn -1.000000 0.000000 0.000000
vn -1.000000 0.000000 0.000000
s off
g group1 _Piattaforma_1Bulloni1pCube9
usemtl blinn1SG
f 33/93/81 34/94/82 36/95/83 35/96/84
f 35/89/85 36/90/86 38/91/87 37/92/88
f 37/97/89 38/98/90 40/99/91 39/100/92
f 34/81/93 40/82/94 38/83/95 36/84/96
f 39/85/97 33/86/98 35/87/99 37/88/100
g default
v -45.984715 35.503059 -34.947941
v -34.796013 35.503059 -34.947941
v -45.984715 39.512520 -34.947941
v -34.796013 39.512520 -34.947941
v -45.984715 39.512520 -46.136642
v -34.796013 39.512520 -46.136642
v -45.984715 35.503059 -46.136642
v -34.796013 35.503059 -46.136642
vt 0.974263 0.167831
vt 0.974263 0.111887
vt 0.994310 0.111887
vt 0.994310 0.167831
vt 0.974263 0.279718
vt 0.974263 0.223774
vt 0.994310 0.223774
vt 0.994310 0.279718
vt 0.576396 0.597002
vt 0.576396 0.541059
vt 0.632340 0.541059
vt 0.632340 0.597002
vt 0.958960 0.391605
vt 0.958960 0.335661
vt 0.979007 0.335661
vt 0.979007 0.391605
vt 0.770229 0.597002
vt 0.770229 0.541059
vt 0.790276 0.541059
vt 0.790276 0.597002
vn 0.000000 0.000000 1.000000
vn 0.000000 0.000000 1.000000
vn 0.000000 0.000000 1.000000
vn 0.000000 0.000000 1.000000
vn 0.000000 1.000000 0.000000
vn 0.000000 1.000000 0.000000
vn 0.000000 1.000000 0.000000
vn 0.000000 1.000000 0.000000
vn 0.000000 0.000000 -1.000000
vn 0.000000 0.000000 -1.000000
vn 0.000000 0.000000 -1.000000
vn 0.000000 0.000000 -1.000000
vn 1.000000 0.000000 0.000000
vn 1.000000 0.000000 0.000000
vn 1.000000 0.000000 0.000000
vn 1.000000 0.000000 0.000000
vn -1.000000 0.000000 0.000000
vn -1.000000 0.000000 0.000000
vn -1.000000 0.000000 0.000000
vn -1.000000 0.000000 0.000000
s off
g group1 _Piattaforma_1pCube7Bulloni
usemtl blinn1SG
f 41/113/101 42/114/102 44/115/103 43/116/104
f 43/109/105 44/110/106 46/111/107 45/112/108
f 45/117/109 46/118/110 48/119/111 47/120/112
f 42/101/113 48/102/114 46/103/115 44/104/116
f 47/105/117 41/106/118 43/107/119 45/108/120
g default
v -45.984715 35.503059 45.998711
v -34.796013 35.503059 45.998711
v -45.984715 39.512520 45.998711
v -34.796013 39.512520 45.998711
v -45.984715 39.512520 34.810009
v -34.796013 39.512520 34.810009
v -45.984715 35.503059 34.810009
v -34.796013 35.503059 34.810009
vt 0.953859 0.223774
vt 0.953859 0.167831
vt 0.973907 0.167831
vt 0.973907 0.223774
vt 0.703918 0.652946
vt 0.703918 0.597002
vt 0.723965 0.597002
vt 0.723965 0.652946
vt 0.637606 0.597002
vt 0.693550 0.597002
vt 0.693550 0.652946
vt 0.637606 0.652946
vt 0.979364 0.391605
vt 0.979364 0.335661
vt 0.999411 0.335661
vt 0.999411 0.391605
vt 0.724321 0.652946
vt 0.724321 0.597002
vt 0.744368 0.597002
vt 0.744368 0.652946
vn 0.000000 0.000000 1.000000
vn 0.000000 0.000000 1.000000
vn 0.000000 0.000000 1.000000
vn 0.000000 0.000000 1.000000
vn 0.000000 1.000000 0.000000
vn 0.000000 1.000000 0.000000
vn 0.000000 1.000000 0.000000
vn 0.000000 1.000000 0.000000
vn 0.000000 0.000000 -1.000000
vn 0.000000 0.000000 -1.000000
vn 0.000000 0.000000 -1.000000
vn 0.000000 0.000000 -1.000000
vn 1.000000 0.000000 0.000000
vn 1.000000 0.000000 0.000000
vn 1.000000 0.000000 0.000000
vn 1.000000 0.000000 0.000000
vn -1.000000 0.000000 0.000000
vn -1.000000 0.000000 0.000000
vn -1.000000 0.000000 0.000000
vn -1.000000 0.000000 0.000000
s off
g group1 _Piattaforma_1BullonipCube9
usemtl blinn1SG
f 49/133/121 50/134/122 52/135/123 51/136/124
f 51/129/125 52/130/126 54/131/127 53/132/128
f 53/137/129 54/138/130 56/139/131 55/140/132
f 50/121/133 56/122/134 54/123/135 52/124/136
f 55/125/137 49/126/138 51/127/139 53/128/140
g default
v -50.000000 22.602219 50.000000
v 50.000000 22.602219 50.000000
v -50.000000 37.210098 50.000000
v 50.000000 37.210098 50.000000
v -50.000000 37.210098 -50.000000
v 50.000000 37.210098 -50.000000
v -50.000000 22.602219 -50.000000
v 50.000000 22.602219 -50.000000
vt 0.800834 0.500000
vt 0.800834 -0.000000
vt 0.873873 -0.000000
vt 0.873873 0.500000
vt 0.877347 0.500000
vt 0.877347 -0.000000
vt 0.950386 -0.000000
vt 0.950386 0.500000
vt 0.000000 0.500000
vt 0.500000 0.500000
vt 0.500000 1.000000
vt 0.000000 1.000000
vt 0.000000 0.000000
vt 0.500000 0.000000
vt 0.500000 0.500000
vt 0.000000 0.500000
vt 0.800834 1.000000
vt 0.800834 0.500000
vt 0.873873 0.500000
vt 0.873873 1.000000
vt 0.923254 1.000000
vt 0.923254 0.500000
vt 0.996294 0.500000
vt 0.996294 1.000000
vn 0.000000 0.000000 1.000000
vn 0.000000 0.000000 1.000000
vn 0.000000 0.000000 1.000000
vn 0.000000 0.000000 1.000000
vn 0.000000 1.000000 0.000000
vn 0.000000 1.000000 0.000000
vn 0.000000 1.000000 0.000000
vn 0.000000 1.000000 0.000000
vn 0.000000 0.000000 -1.000000
vn 0.000000 0.000000 -1.000000
vn 0.000000 0.000000 -1.000000
vn 0.000000 0.000000 -1.000000
vn 0.000000 -1.000000 0.000000
vn 0.000000 -1.000000 0.000000
vn 0.000000 -1.000000 0.000000
vn 0.000000 -1.000000 0.000000
vn 1.000000 0.000000 0.000000
vn 1.000000 0.000000 0.000000
vn 1.000000 0.000000 0.000000
vn 1.000000 0.000000 0.000000
vn -1.000000 0.000000 0.000000
vn -1.000000 0.000000 0.000000
vn -1.000000 0.000000 0.000000
vn -1.000000 0.000000 0.000000
s off
g group1 _pCube6Piattaforma_1
usemtl blinn1SG
f 57/157/141 58/158/142 60/159/143 59/160/144
f 59/149/145 60/150/146 62/151/147 61/152/148
f 61/161/149 62/162/150 64/163/151 63/164/152
f 63/153/153 64/154/154 58/155/155 57/156/156
f 58/141/157 64/142/158 62/143/159 60/144/160
f 63/145/161 57/146/162 59/147/163 61/148/164
