# This file uses meters as units for non-parametric coordinates.

mtllib piattaforma3.mtl
g default
v 101.275986 35.503059 -20.673735
v 112.464676 35.503059 -20.673735
v 101.275986 39.512520 -20.673735
v 112.464676 39.512520 -20.673735
v 101.275986 39.512520 -31.862438
v 112.464676 39.512520 -31.862438
v 101.275986 35.503059 -31.862438
v 112.464676 35.503059 -31.862438
vt 0.845205 0.563379
vt 0.845205 0.516445
vt 0.862024 0.516445
vt 0.862024 0.563379
vt 0.797958 0.610314
vt 0.797958 0.563379
vt 0.814777 0.563379
vt 0.814777 0.610314
vt 0.887203 0.563379
vt 0.934137 0.563379
vt 0.934137 0.610314
vt 0.887203 0.610314
vt 0.850455 0.657248
vt 0.850455 0.610314
vt 0.867274 0.610314
vt 0.867274 0.657248
vt 0.913452 0.704182
vt 0.913452 0.657248
vt 0.930271 0.657248
vt 0.930271 0.704182
vn 0.000000 0.000000 1.000000
vn 0.000000 0.000000 1.000000
vn 0.000000 0.000000 1.000000
vn 0.000000 0.000000 1.000000
vn 0.000000 1.000000 0.000000
vn 0.000000 1.000000 0.000000
vn 0.000000 1.000000 0.000000
vn 0.000000 1.000000 0.000000
vn 0.000000 0.000000 -1.000000
vn 0.000000 0.000000 -1.000000
vn 0.000000 0.000000 -1.000000
vn 0.000000 0.000000 -1.000000
vn 1.000000 0.000000 0.000000
vn 1.000000 0.000000 0.000000
vn 1.000000 0.000000 0.000000
vn 1.000000 0.000000 0.000000
vn -1.000000 0.000000 0.000000
vn -1.000000 0.000000 0.000000
vn -1.000000 0.000000 0.000000
vn -1.000000 0.000000 0.000000
s off
g piattaforma3:Piattaforma_3BullonipCube14 group1
usemtl lambert1SG
f 1/13/1 2/14/2 4/15/3 3/16/4
f 3/9/5 4/10/6 6/11/7 5/12/8
f 5/17/9 6/18/10 8/19/11 7/20/12
f 2/1/13 8/2/14 6/3/15 4/4/16
f 7/5/17 1/6/18 3/7/19 5/8/20
g default
v -4.058151 -76.654831 6.931067
v 10.845901 -76.654831 6.931067
v -4.058151 31.556938 6.931067
v 10.845901 31.556938 6.931067
v -4.058151 31.556938 -6.931067
v 10.845901 31.556938 -6.931067
v -4.058151 -76.654831 -6.931067
v 10.845901 -76.654831 -6.931067
vt 0.860955 0.000000
vt 0.919103 0.000000
vt 0.919103 0.453926
vt 0.860955 0.453926
vt 0.923951 0.000000
vt 0.982100 0.000000
vt 0.982100 0.453926
vt 0.923951 0.453926
vt 0.839956 0.516445
vt 0.839956 0.453926
vt 0.898104 0.453926
vt 0.898105 0.516445
vt 0.734961 0.000000
vt 0.797481 0.000000
vt 0.797481 0.453926
vt 0.734961 0.453926
vt 0.797958 0.000000
vt 0.860477 0.000000
vt 0.860477 0.453926
vt 0.797958 0.453926
vn 0.000000 0.000000 1.000000
vn 0.000000 0.000000 1.000000
vn 0.000000 0.000000 1.000000
vn 0.000000 0.000000 1.000000
vn 0.000000 0.000000 -1.000000
vn 0.000000 0.000000 -1.000000
vn 0.000000 0.000000 -1.000000
vn 0.000000 0.000000 -1.000000
vn 0.000000 -1.000000 0.000000
vn 0.000000 -1.000000 0.000000
vn 0.000000 -1.000000 0.000000
vn 0.000000 -1.000000 0.000000
vn 1.000000 0.000000 0.000000
vn 1.000000 0.000000 0.000000
vn 1.000000 0.000000 0.000000
vn 1.000000 0.000000 0.000000
vn -1.000000 0.000000 0.000000
vn -1.000000 0.000000 0.000000
vn -1.000000 0.000000 0.000000
vn -1.000000 0.000000 0.000000
s off
g group1 piattaforma3:Piattaforma_3pCube12
usemtl lambert1SG
f 9/33/21 10/34/22 12/35/23 11/36/24
f 13/37/25 14/38/26 16/39/27 15/40/28
f 15/29/29 16/30/30 10/31/31 9/32/32
f 10/21/33 16/22/34 14/23/35 12/24/36
f 15/25/37 9/26/38 11/27/39 13/28/40
g default
v 101.275986 35.503059 31.018190
v 112.464676 35.503059 31.018190
v 101.275986 39.512520 31.018190
v 112.464676 39.512520 31.018190
v 101.275986 39.512520 19.829487
v 112.464676 39.512520 19.829487
v 101.275986 35.503059 19.829487
v 112.464676 35.503059 19.829487
vt 0.913452 0.657248
vt 0.913452 0.610314
vt 0.930271 0.610314
vt 0.930271 0.657248
vt 0.818957 0.610314
vt 0.818957 0.563379
vt 0.835776 0.563379
vt 0.835776 0.610314
vt 0.839956 0.563379
vt 0.886890 0.563379
vt 0.886890 0.610314
vt 0.839956 0.610314
vt 0.839956 0.704182
vt 0.839956 0.657248
vt 0.856775 0.657248
vt 0.856775 0.704182
vt 0.892453 0.704182
vt 0.892453 0.657248
vt 0.909272 0.657248
vt 0.909272 0.704182
vn 0.000000 0.000000 1.000000
vn 0.000000 0.000000 1.000000
vn 0.000000 0.000000 1.000000
vn 0.000000 0.000000 1.000000
vn 0.000000 1.000000 0.000000
vn 0.000000 1.000000 0.000000
vn 0.000000 1.000000 0.000000
vn 0.000000 1.000000 0.000000
vn 0.000000 0.000000 -1.000000
vn 0.000000 0.000000 -1.000000
vn 0.000000 0.000000 -1.000000
vn 0.000000 0.000000 -1.000000
vn 1.000000 0.000000 0.000000
vn 1.000000 0.000000 0.000000
vn 1.000000 0.000000 0.000000
vn 1.000000 0.000000 0.000000
vn -1.000000 0.000000 0.000000
vn -1.000000 0.000000 0.000000
vn -1.000000 0.000000 0.000000
vn -1.000000 0.000000 0.000000
s off
g group1 piattaforma3:Piattaforma_3BullonipCube13
usemtl lambert1SG
f 17/53/41 18/54/42 20/55/43 19/56/44
f 19/49/45 20/50/46 22/51/47 21/52/48
f 21/57/49 22/58/50 24/59/51 23/60/52
f 18/41/53 24/42/54 22/43/55 20/44/56
f 23/45/57 17/46/58 19/47/59 21/48/60
g default
v -119.195450 22.602219 36.271179
v 119.195450 22.602219 36.271179
v -119.195450 37.210098 36.271179
v 119.195450 37.210098 36.271179
v -119.195450 37.210098 -36.271179
v 119.195450 37.210098 -36.271179
v -119.195450 22.602219 -36.271179
v 119.195450 22.602219 -36.271179
vt 0.734961 0.758226
vt 0.734961 0.453926
vt 0.796238 0.453926
vt 0.796238 0.758226
vt 0.934451 0.758226
vt 0.934451 0.453926
vt 0.995728 0.453926
vt 0.995728 0.758226
vt 0.304484 1.000000
vt 0.304484 0.000000
vt 0.608784 0.000000
vt 0.608784 1.000000
vt 0.000000 1.000000
vt 0.000000 0.000000
vt 0.304300 0.000000
vt 0.304300 1.000000
vt 0.608968 1.000000
vt 0.608968 0.000000
vt 0.670245 0.000000
vt 0.670245 1.000000
vt 0.671965 1.000000
vt 0.671965 0.000000
vt 0.733242 0.000000
vt 0.733242 1.000000
vn 0.000000 0.000000 1.000000
vn 0.000000 0.000000 1.000000
vn 0.000000 0.000000 1.000000
vn 0.000000 0.000000 1.000000
vn 0.000000 1.000000 0.000000
vn 0.000000 1.000000 0.000000
vn 0.000000 1.000000 0.000000
vn 0.000000 1.000000 0.000000
vn 0.000000 0.000000 -1.000000
vn 0.000000 0.000000 -1.000000
vn 0.000000 0.000000 -1.000000
vn 0.000000 0.000000 -1.000000
vn 0.000000 -1.000000 0.000000
vn 0.000000 -1.000000 0.000000
vn 0.000000 -1.000000 0.000000
vn 0.000000 -1.000000 0.000000
vn 1.000000 0.000000 0.000000
vn 1.000000 0.000000 0.000000
vn 1.000000 0.000000 0.000000
vn 1.000000 0.000000 0.000000
vn -1.000000 0.000000 0.000000
vn -1.000000 0.000000 0.000000
vn -1.000000 0.000000 0.000000
vn -1.000000 0.000000 0.000000
s off
g group1 piattaforma3:pCube11Piattaforma_3
usemtl lambert1SG
f 25/77/61 26/78/62 28/79/63 27/80/64
f 27/69/65 28/70/66 30/71/67 29/72/68
f 29/81/69 30/82/70 32/83/71 31/84/72
f 31/73/73 32/74/74 26/75/75 25/76/76
f 26/61/77 32/62/78 30/63/79 28/64/80
f 31/65/81 25/66/82 27/67/83 29/68/84
g default
v -111.696426 35.503059 31.018190
v -100.507706 35.503059 31.018190
v -111.696426 39.512520 31.018190
v -100.507706 39.512520 31.018190
v -111.696426 39.512520 19.829487
v -100.507706 39.512520 19.829487
v -111.696426 35.503059 19.829487
v -100.507706 35.503059 19.829487
vt 0.892453 0.657248
vt 0.892453 0.610314
vt 0.909272 0.610314
vt 0.909272 0.657248
vt 0.818957 0.657248
vt 0.818957 0.610314
vt 0.835776 0.610314
vt 0.835776 0.657248
vt 0.797958 0.563379
vt 0.797958 0.516445
vt 0.844892 0.516445
vt 0.844892 0.563379
vt 0.902952 0.500860
vt 0.902952 0.453926
vt 0.919771 0.453926
vt 0.919771 0.500860
vt 0.818957 0.500860
vt 0.818957 0.453926
vt 0.835776 0.453926
vt 0.835776 0.500860
vn 0.000000 0.000000 1.000000
vn 0.000000 0.000000 1.000000
vn 0.000000 0.000000 1.000000
vn 0.000000 0.000000 1.000000
vn 0.000000 1.000000 0.000000
vn 0.000000 1.000000 0.000000
vn 0.000000 1.000000 0.000000
vn 0.000000 1.000000 0.000000
vn 0.000000 0.000000 -1.000000
vn 0.000000 0.000000 -1.000000
vn 0.000000 0.000000 -1.000000
vn 0.000000 0.000000 -1.000000
vn 1.000000 0.000000 0.000000
vn 1.000000 0.000000 0.000000
vn 1.000000 0.000000 0.000000
vn 1.000000 0.000000 0.000000
vn -1.000000 0.000000 0.000000
vn -1.000000 0.000000 0.000000
vn -1.000000 0.000000 0.000000
vn -1.000000 0.000000 0.000000
s off
g group1 piattaforma3:Piattaforma_3BullonipCube16
usemtl lambert1SG
f 33/97/85 34/98/86 36/99/87 35/100/88
f 35/93/89 36/94/90 38/95/91 37/96/92
f 37/101/93 38/102/94 40/103/95 39/104/96
f 34/85/97 40/86/98 38/87/99 36/88/100
f 39/89/101 33/90/102 35/91/103 37/92/104
g default
v -111.696426 35.503059 -20.673735
v -100.507706 35.503059 -20.673735
v -111.696426 39.512520 -20.673735
v -100.507706 39.512520 -20.673735
v -111.696426 39.512520 -31.862438
v -100.507706 39.512520 -31.862438
v -111.696426 35.503059 -31.862438
v -100.507706 35.503059 -31.862438
vt 0.797958 0.657248
vt 0.797958 0.610314
vt 0.814777 0.610314
vt 0.814777 0.657248
vt 0.871454 0.657248
vt 0.871454 0.610314
vt 0.888273 0.610314
vt 0.888273 0.657248
vt 0.887203 0.563379
vt 0.887203 0.516445
vt 0.934138 0.516445
vt 0.934138 0.563379
vt 0.797958 0.500860
vt 0.797958 0.453926
vt 0.814777 0.453926
vt 0.814777 0.500860
vt 0.866204 0.563379
vt 0.866204 0.516445
vt 0.883023 0.516445
vt 0.883023 0.563379
vn 0.000000 0.000000 1.000000
vn 0.000000 0.000000 1.000000
vn 0.000000 0.000000 1.000000
vn 0.000000 0.000000 1.000000
vn 0.000000 1.000000 0.000000
vn 0.000000 1.000000 0.000000
vn 0.000000 1.000000 0.000000
vn 0.000000 1.000000 0.000000
vn 0.000000 0.000000 -1.000000
vn 0.000000 0.000000 -1.000000
vn 0.000000 0.000000 -1.000000
vn 0.000000 0.000000 -1.000000
vn 1.000000 0.000000 0.000000
vn 1.000000 0.000000 0.000000
vn 1.000000 0.000000 0.000000
vn 1.000000 0.000000 0.000000
vn -1.000000 0.000000 0.000000
vn -1.000000 0.000000 0.000000
vn -1.000000 0.000000 0.000000
vn -1.000000 0.000000 0.000000
s off
g group1 piattaforma3:Piattaforma_3pCube15Bulloni
usemtl lambert1SG
f 41/117/105 42/118/106 44/119/107 43/120/108
f 43/113/109 44/114/110 46/115/111 45/116/112
f 45/121/113 46/122/114 48/123/115 47/124/116
f 42/105/117 48/106/118 46/107/119 44/108/120
f 47/109/121 41/110/122 43/111/123 45/112/124
